<?xml version="1.0" encoding="UTF-8" standalone="no"?>
<!-- Created with Inkscape (http://www.inkscape.org/) -->

<svg
   xmlns:dc="http://purl.org/dc/elements/1.1/"
   xmlns:cc="http://creativecommons.org/ns#"
   xmlns:rdf="http://www.w3.org/1999/02/22-rdf-syntax-ns#"
   xmlns:svg="http://www.w3.org/2000/svg"
   xmlns="http://www.w3.org/2000/svg"
   xmlns:sodipodi="http://sodipodi.sourceforge.net/DTD/sodipodi-0.dtd"
   xmlns:inkscape="http://www.inkscape.org/namespaces/inkscape"
   width="228.40657"
   height="100.17358"
   viewBox="0 0 60.43257 26.504258"
   version="1.1"
   id="svg25176"
   inkscape:version="0.92.0 r15299"
   sodipodi:docname="allstream.svg">
  <defs
     id="defs25170" />
  <sodipodi:namedview
     id="base"
     pagecolor="#ffffff"
     bordercolor="#666666"
     borderopacity="1.0"
     inkscape:pageopacity="0.0"
     inkscape:pageshadow="2"
     inkscape:zoom="1.6818751"
     inkscape:cx="168.6602"
     inkscape:cy="-13.768609"
     inkscape:document-units="mm"
     inkscape:current-layer="layer1"
     showgrid="false"
     fit-margin-top="0"
     fit-margin-left="0"
     fit-margin-right="0"
     fit-margin-bottom="0"
     units="px"
     inkscape:window-width="1280"
     inkscape:window-height="744"
     inkscape:window-x="-4"
     inkscape:window-y="-4"
     inkscape:window-maximized="1" />
  <metadata
     id="metadata25173">
    <rdf:RDF>
      <cc:Work
         rdf:about="">
        <dc:format>image/svg+xml</dc:format>
        <dc:type
           rdf:resource="http://purl.org/dc/dcmitype/StillImage" />
        <dc:title></dc:title>
      </cc:Work>
    </rdf:RDF>
  </metadata>
  <g
     inkscape:label="Layer 1"
     inkscape:groupmode="layer"
     id="layer1"
     transform="translate(-75.048566,-177.64996)">
    <g
       id="g25261">
      <path
         inkscape:connector-curvature="0"
         id="path25212"
         d="m 134.11998,195.28524 -0.001,0.79168 0.14004,5.3e-4 c 0,0 5.3e-4,-0.31546 0.001,-0.33487 0.0173,0 0.13896,5.3e-4 0.14883,5.3e-4 0.006,0.01 0.20516,0.33487 0.20516,0.33487 l 0.15451,5.2e-4 c 0,0 -0.20514,-0.31843 -0.22066,-0.34313 0.12665,-0.021 0.19499,-0.096 0.19534,-0.2191 h -5.3e-4 c 0,-0.1545 -0.0932,-0.22956 -0.2837,-0.22996 z m 0.14004,0.11834 c 0.0183,0 0.1819,5.3e-4 0.1819,5.3e-4 0.13335,5.3e-4 0.16072,0.0406 0.16072,0.10541 -2.6e-4,0.07 -0.0313,0.11503 -0.18087,0.11473 h -0.16227 c 0,-0.019 -1e-5,-0.20166 5.3e-4,-0.22066 z"
         style="fill:#000000;fill-opacity:1;fill-rule:nonzero;stroke:none;stroke-width:0.03527778" />
      <path
         inkscape:connector-curvature="0"
         id="path25216"
         d="m 134.40937,194.88165 c -0.45616,-8e-4 -0.81336,0.34903 -0.81442,0.79633 -8e-4,0.4498 0.35553,0.80247 0.81132,0.80357 0.45367,7.9e-4 0.80922,-0.35015 0.81028,-0.79995 8e-4,-0.4477 -0.35352,-0.79886 -0.80718,-0.79995 z m 0,0.12764 c 0.37288,7.9e-4 0.6539,0.29009 0.65319,0.67179 -0.001,0.3842 -0.2829,0.67249 -0.65578,0.67179 -0.37607,-7.9e-4 -0.65803,-0.29069 -0.65732,-0.67489 0.001,-0.3817 0.28385,-0.66949 0.65991,-0.66869 z"
         style="fill:#000000;fill-opacity:1;fill-rule:nonzero;stroke:none;stroke-width:0.03527778" />
      <path
         inkscape:connector-curvature="0"
         id="path25196"
         d="m 111.23714,189.18794 c -2.56681,-0.01 -3.80872,1.66639 -4.13928,3.52019 -0.40569,2.27551 0.8394,3.54174 2.88199,3.54604 1.00718,0 1.78072,-0.14657 2.5399,-0.53847 l 0.57722,-1.3441 c -0.57255,0.2255 -1.48716,0.7301 -2.68872,0.7276 -2.23802,0 -1.97749,-1.55865 -1.83038,-2.32905 l 4.9754,0.01 0.0775,-0.40566 c 0.32138,-1.8259 -0.74794,-3.18287 -2.39365,-3.18637 z m -0.25373,1.20561 c 1.16839,0 1.27456,0.81416 1.19941,1.23816 v 0.004 l -3.25665,-0.01 c 0.37959,-0.8318 1.0737,-1.23356 2.05724,-1.23196 z"
         style="fill:#000000;fill-opacity:1;fill-rule:nonzero;stroke:none;stroke-width:0.03527778" />
      <g
         transform="translate(0.26458416,-0.26458105)"
         style="fill:#5fafe1;fill-opacity:0.98431373"
         id="g25238">
        <path
           inkscape:connector-curvature="0"
           style="fill:#5fafe1;fill-opacity:0.98431373;fill-rule:nonzero;stroke:none;stroke-width:0.03527778"
           d="m 84.511385,203.06133 0.03916,2.9e-4 c 1.013954,-0.8813 2.156213,-3.2314 3.166851,-5.7422 h -1.501775 c -0.749229,2.7831 -1.36839,5.2116 -1.704235,5.745"
           id="path25210" />
        <path
           inkscape:connector-curvature="0"
           style="fill:#5fafe1;fill-opacity:0.98431373;fill-rule:nonzero;stroke:none;stroke-width:0.03527778"
           d="m 88.343017,179.12644 c 0.645478,-0.4075 0.683649,1.7896 0.2165,5.2301 h 1.570286 c 0.233855,-4.1182 -0.374263,-6.3714 -1.002949,-6.1643 -0.280846,0.093 -0.560846,0.4128 -0.853687,0.9613 h 0.03281 c 0.01224,-0.011 0.02395,-0.024 0.03704,-0.03"
           id="path25206" />
      </g>
      <g
         transform="translate(0.26458416,-0.26458105)"
         style="fill:#f59130;fill-opacity:1"
         id="g25242">
        <path
           inkscape:connector-curvature="0"
           style="fill:#f59130;fill-opacity:1;fill-rule:nonzero;stroke:none;stroke-width:0.03527778"
           d="m 84.387914,203.20942 c -0.64696,0.4084 -0.572136,-2.3849 -0.09204,-5.8939 h -1.570303 c -0.245568,4.178 0.248744,7.0355 0.878099,6.8281 0.280424,-0.092 0.560847,-0.4131 0.853405,-0.9614 h -0.03277 c -0.01284,0.011 -0.02332,0.024 -0.03641,0.03"
           id="path25208" />
        <path
           inkscape:connector-curvature="0"
           style="fill:#f59130;fill-opacity:1;fill-rule:nonzero;stroke:none;stroke-width:0.03527778"
           d="m 88.219157,179.26784 h -0.04025 c -1.011343,0.8794 -2.049568,2.6588 -3.044084,5.0787 h 1.499306 c 0.733814,-2.6986 1.249891,-4.5485 1.58503,-5.0819"
           id="path25204" />
      </g>
      <path
         inkscape:connector-curvature="0"
         id="path25202"
         d="m 79.769849,189.09566 c -0.801617,0 -1.748049,0.1206 -2.784193,0.38 l -0.469229,1.4016 c 1.14875,-0.4939 2.017606,-0.6823 2.934123,-0.6805 0.580567,0 1.377915,0.1135 1.272082,0.7055 -0.252872,1.4207 -4.898673,0.6152 -5.365398,3.2343 -0.255094,1.4263 0.614892,2.0757 2.143125,2.0785 0.640221,0 1.1176,-0.07 1.568768,-0.1421 l 0.504472,-1.2421 c -0.449792,0.1467 -1.098832,0.3315 -1.618227,0.3306 -0.582083,0 -1.31258,-0.1653 -1.193377,-0.8356 0.201754,-1.1232 2.399313,-1.2456 3.668466,-1.7824 l -0.626428,3.5115 h 1.615335 l 0.911966,-5.11 c 0.217311,-1.2114 -0.616656,-1.8485 -2.561485,-1.8524"
         style="fill:#000000;fill-opacity:1;fill-rule:nonzero;stroke:none;stroke-width:0.03527778" />
      <path
         inkscape:connector-curvature="0"
         id="path25200"
         d="m 131.19219,189.19666 c -1.2573,0 -2.21087,0.4703 -2.74603,1.0658 -0.27093,-0.5645 -0.90981,-1.0733 -1.82668,-1.0749 -0.78669,0 -1.51518,0.1809 -2.11067,0.7368 l 0.11395,-0.6381 h -1.61573 l -1.22308,6.8534 h 1.61502 l 0.71896,-4.0072 c 0.20179,-1.1413 0.90558,-1.6665 1.90606,-1.6644 0.85125,0 1.26577,0.7917 1.10561,1.8041 l -0.69321,3.8735 h 1.62418 l 0.69498,-4.0069 c 0.20426,-1.1508 0.91687,-1.6665 1.91664,-1.6648 0.85125,0 1.28094,0.7921 1.10525,1.8045 l -0.69003,3.8735 h 1.62031 c 0,0 0.57009,-3.2216 0.74507,-4.2037 0.20284,-1.1363 -0.28117,-2.7546 -2.2606,-2.7584"
         style="fill:#000000;fill-opacity:1;fill-rule:nonzero;stroke:none;stroke-width:0.03527778" />
      <path
         inkscape:connector-curvature="0"
         id="path25194"
         d="m 118.5328,189.16116 c -0.80116,0 -1.74802,0.121 -2.78483,0.38 l -0.46814,1.4018 c 1.14865,-0.4939 2.01754,-0.6822 2.9337,-0.6804 0.58067,0 1.37831,0.1135 1.27247,0.7051 -0.25294,1.4211 -4.89937,0.6157 -5.36575,3.2343 -0.2547,1.4264 0.61489,2.0758 2.14348,2.079 0.63994,0 1.11725,-0.07 1.5688,-0.1422 l 0.50412,-1.2422 c -0.44979,0.1468 -1.0982,0.3317 -1.61819,0.3306 -0.58173,0 -1.31268,-0.1655 -1.19274,-0.8353 0.20038,-1.1237 2.39889,-1.2458 3.66783,-1.7827 l -0.62653,3.5116 h 1.61466 l 0.91193,-5.1099 c 0.21767,-1.2114 -0.6156,-1.8489 -2.56081,-1.8528"
         style="fill:#000000;fill-opacity:1;fill-rule:nonzero;stroke:none;stroke-width:0.03527778" />
      <path
         inkscape:connector-curvature="0"
         id="path25192"
         d="m 90.803972,190.84426 c -0.310056,1.7365 2.73311,2.4991 2.546845,3.537 -0.09172,0.5193 -0.735684,0.6834 -1.276422,0.6819 -0.670982,-0.001 -1.316319,-0.2011 -1.895228,-0.4903 l -0.0028,1.3794 c 0.533047,0.1552 1.211439,0.2755 1.819557,0.2765 0.745102,0 2.60156,-0.1252 2.910594,-1.8359 0.320322,-1.7674 -2.662132,-2.5579 -2.493187,-3.4953 0.09455,-0.5323 0.819609,-0.618 1.112414,-0.6173 0.757062,0 1.226256,0.2028 1.642181,0.3894 l 0.0025,-1.3688 c -0.442736,-0.1082 -1.049513,-0.1915 -1.539169,-0.1925 -2.32597,-0.01 -2.747504,1.2847 -2.827302,1.7359"
         style="fill:#000000;fill-opacity:1;fill-rule:nonzero;stroke:none;stroke-width:0.03527778" />
      <path
         inkscape:connector-curvature="0"
         id="path25190"
         d="m 88.670764,185.05706 -1.962221,10.9963 h 1.615334 l 1.962221,-10.9961 z"
         style="fill:#000000;fill-opacity:1;fill-rule:nonzero;stroke:none;stroke-width:0.03527778" />
      <path
         inkscape:connector-curvature="0"
         id="path25188"
         d="M 86.667339,185.05706 H 85.05271 l -1.961903,10.9962 h 1.615052 z"
         style="fill:#000000;fill-opacity:1;fill-rule:nonzero;stroke:none;stroke-width:0.03527778" />
      <path
         inkscape:connector-curvature="0"
         id="path25186"
         d="m 104.15848,189.87466 0.1143,-0.6381 h -1.61572 l -1.22273,6.8536 h 1.61466 l 0.68333,-3.8261 c 0.18063,-1.0149 0.94368,-1.8571 2.12055,-1.855 0.34855,6.9e-4 0.72355,0.1002 1.05481,0.2135 l 0.12029,-1.3695 c -0.25188,-0.072 -0.48189,-0.1147 -0.75741,-0.1154 -0.78705,0 -1.51589,0.181 -2.11208,0.737"
         style="fill:#000000;fill-opacity:1;fill-rule:nonzero;stroke:none;stroke-width:0.03527778" />
      <path
         inkscape:connector-curvature="0"
         id="path24844"
         d="m 99.404452,187.53776 -1.683456,0.384 -0.229306,1.3014 h -0.782461 l -0.203553,1.1447 h 0.78352 l -0.657225,3.7268 c -0.217664,1.2202 -0.01976,2.1477 1.844322,2.1515 0.464961,6.9e-4 0.983545,-0.079 1.458736,-0.2078 l 0.380641,-1.2381 c -0.58631,0.1682 -1.054446,0.2919 -1.41428,0.2912 -0.545747,0 -0.785636,-0.2754 -0.703438,-0.7322 l 0.705567,-3.9882 h 2.029881 l 0.20461,-1.1447 h -2.031995"
         style="fill:#000000;fill-opacity:1;fill-rule:nonzero;stroke:none;stroke-width:0.03527778" />
    </g>
  </g>
</svg>
