<svg width="164" height="28" viewBox="0 0 164 28" fill="none" xmlns="http://www.w3.org/2000/svg">
<path d="M72.0955 12.8099C72.0955 9.09182 70.0041 5.78042 65.8213 5.78042C61.8708 5.78042 58.327 8.68515 58.327 13.8846C58.327 18.7646 61.9289 21.9307 66.257 21.9307C69.5684 21.9307 71.7469 19.8103 71.7469 19.8103L71.0498 18.7355C71.0498 18.7355 69.2198 20.6817 66.286 20.6817C62.7132 20.6817 59.6923 18.1255 59.6923 13.6522H72.0374C72.0374 13.6232 72.0955 13.1294 72.0955 12.8099ZM59.7794 12.4323C60.3313 8.83039 62.9456 6.97136 65.7922 6.97136C68.3484 6.97136 70.585 8.65611 70.7593 12.4323H59.7794ZM7.78468 5.78042C3.95044 5.78042 1.77189 8.68515 1.24903 10.1085H1.19094C1.19094 10.1085 1.30713 9.55657 1.30713 8.85944V0H0V21.5531H1.30713V14.0299C1.30713 13.3037 1.36522 12.5775 1.53951 11.9385C2.35283 9.06277 4.909 7.02946 7.78468 7.02946C11.2413 7.02946 11.5608 9.55657 11.5608 12.2289V21.5241H12.868V11.7932C12.868 8.1623 11.7932 5.78042 7.78468 5.78042ZM22.8893 5.78042C18.4741 5.78042 14.9303 9.2661 14.9303 13.7394C14.9303 18.3289 18.5032 21.9017 22.8893 21.9017C27.3045 21.9017 30.8483 18.3289 30.8483 13.7394C30.8773 9.2661 27.3045 5.78042 22.8893 5.78042ZM22.8893 20.6527C19.2293 20.6527 16.2665 17.6608 16.2665 13.7684C16.2665 9.93419 19.2293 7.02946 22.8893 7.02946C26.5493 7.02946 29.5121 9.93419 29.5121 13.7394C29.5121 17.6608 26.5493 20.6527 22.8893 20.6527ZM51.0071 5.78042C48.3638 5.78042 46.011 7.81373 45.1686 9.96324H45.1105C44.7619 7.23279 43.3386 5.78042 40.2596 5.78042C37.8487 5.78042 35.1182 7.81373 34.363 10.1085H34.3049C34.3049 10.1085 34.4211 9.55657 34.4211 8.85944V6.15804H33.114V21.5531H34.4211V14.0299C34.4211 13.3037 34.4792 12.5775 34.6535 11.9385C35.3506 9.38229 37.5291 6.97136 40.2596 6.97136C43.6581 6.97136 44.0067 9.58562 44.0067 12.2289V21.5241H45.3138V14.0299C45.3138 13.1294 45.401 12.3742 45.6334 11.648C46.3014 9.23705 48.509 6.97136 51.0652 6.97136C54.3185 6.97136 54.8995 9.35324 54.8995 12.2289V21.5241H56.2066V11.7932C56.1485 8.13325 54.9866 5.78042 51.0071 5.78042Z" fill="black"
/>
<path
d="M119.995 17.9818V5.84002H113.691V8.7738H116.102V12.8404C116.102 15.6871 114.476 18.4466 111.774 18.4466C109.799 18.4466 109.305 17.1394 109.305 15.2804V5.84002H102.973V8.7738H105.413V15.9485C105.413 20.2184 107.417 21.9322 110.554 21.9322C114.505 21.9322 116.102 18.9985 116.277 18.4756H116.335C116.335 18.4756 116.306 18.8242 116.306 19.2018V19.7827C116.306 20.8865 116.945 21.5256 118.339 21.5256H122.231V18.6208H120.721C120.256 18.6499 119.995 18.4175 119.995 17.9818ZM80.7807 12.3176C79.0378 11.7947 77.4983 11.2719 77.4983 9.96474C77.4983 8.97713 78.544 8.54142 79.764 8.54142C81.1583 8.54142 82.0587 9.03522 82.0587 9.84855V10.749H85.4282V8.74475C85.4282 6.36287 82.0297 5.49145 79.764 5.49145C76.8883 5.49145 73.5769 6.65334 73.5769 9.99378C73.5769 12.9857 76.2202 14.0604 78.544 14.8447C80.6354 15.5999 82.1168 15.9485 82.1168 17.2847C82.1168 18.3304 81.013 18.8823 79.4445 18.8823C77.8178 18.8823 76.3655 18.3304 76.3655 17.2556V16.3261H73.0541V18.1561C73.0541 20.7123 76.5688 21.9322 79.4154 21.9322C83.0173 21.9322 86.0382 20.3346 86.0382 17.1685C86.0092 14.0604 83.1916 13.0728 80.7807 12.3176ZM148.693 9.47093C149.245 9.47093 149.652 9.52903 149.652 9.52903V5.69478C149.652 5.69478 149.303 5.63669 148.955 5.63669C146.544 5.63669 144.685 7.40857 143.959 9.67426H143.901C143.901 9.67426 143.959 9.2676 143.959 8.68666V7.75714C143.959 6.42096 143.261 5.84002 141.867 5.84002H137.772V8.7738H139.514C139.95 8.7738 140.182 9.00618 140.182 9.44189V18.6208H137.859H137.626H136.464C136.029 18.6208 135.796 18.4175 135.796 17.9528V11.6495C135.796 7.64095 133.56 5.4624 129.319 5.4624C125.543 5.4624 123.103 7.40857 123.103 7.40857L124.555 10.11C124.555 10.11 126.646 8.59951 128.999 8.59951C130.626 8.59951 131.904 9.29665 131.904 11.3009V11.8238H130.916C128.389 11.8238 122.086 12.3176 122.086 17.1104C122.086 20.3056 124.613 21.8741 127.285 21.8741C130.916 21.8741 132.253 18.8532 132.253 18.8532H132.311C132.311 18.8532 132.223 19.1727 132.223 19.6665V19.8408C132.223 20.7413 132.775 21.4965 134.228 21.4965H137.684H137.917H146.399V18.5627H144.162V15.1352C144.104 12.2595 145.527 9.47093 148.693 9.47093ZM131.904 14.7285C131.904 16.7037 130.394 18.9694 128.273 18.9694C126.821 18.9694 126.007 17.9818 126.007 16.8199C126.007 14.438 129.725 14.2056 131.265 14.2056H131.904V14.7285ZM164.001 12.9276C164.001 8.7738 161.532 5.49145 157.001 5.49145C152.295 5.49145 149.042 8.88999 149.042 13.7118C149.042 18.1851 152.266 21.9322 157.466 21.9322C161.416 21.9322 163.798 19.7537 163.798 19.7537L162.287 16.9942C162.287 16.9942 160.283 18.6499 157.727 18.6499C155.345 18.6499 153.254 17.1685 153.021 14.2928H163.885C163.914 14.2347 164.001 13.3923 164.001 12.9276ZM153.138 11.94C153.515 9.8776 154.909 8.48333 156.914 8.48333C158.569 8.48333 159.906 9.79046 159.964 11.94H153.138Z"
fill="black"
/>
<path
d="M102.391 17.922V6.97115C102.391 6.30306 102.043 5.72212 101.491 5.37355L95.3619 1.77168C94.7809 1.42311 94.0547 1.42311 93.4738 1.77168L87.3448 5.37355C86.7929 5.69307 86.4443 6.30306 86.4443 6.97115V20.0134C86.4443 21.0301 87.2577 21.8724 88.3034 21.8724H92.6895C92.8347 21.8724 92.9509 21.9305 93.0671 22.0177L99.4575 28.0305L102.13 25.1838L94.9843 18.4448C94.6357 18.1253 94.2 17.951 93.7352 17.951H90.9176C90.5981 17.951 90.3657 17.6896 90.3657 17.3991V8.45257C90.3657 8.24923 90.4819 8.07495 90.6272 7.98781L94.1419 5.92545C94.3162 5.80926 94.5195 5.80926 94.6938 5.92545L98.2085 7.98781C98.3828 8.07495 98.4699 8.27828 98.4699 8.45257V17.922H102.391Z"
fill="black"
/>
</svg>