<?xml version="1.0" encoding="UTF-8"?><svg id="Layer_1" xmlns="http://www.w3.org/2000/svg" viewBox="0 0 227.63 57.01"><defs><style>.cls-1,.cls-2{fill:#f8bc16;}.cls-3{fill:#fff;}.cls-4{fill:#876240;}.cls-5{fill:#b91f33;}.cls-6{fill:#172750;}.cls-7{fill:#212121;}.cls-8{fill:#614f88;}.cls-9{fill:#77933b;}.cls-2{fill-rule:evenodd;}</style></defs><path class="cls-3" d="M119.57,33.73c0,1.41,.05,2.46,.26,3.04,.21,.47,.78,.68,1.67,.73l2.15,.16v1.56c-1.31-.05-2.82-.15-4.28-.15s-3.03,.1-4.39,.15c.11-1.46,.21-2.87,.21-4.81l-3.5,3.25c-1.46,1.31-3.34,2.04-5.85,2.04-7.36,0-7.36-4.71-7.36-8.95v-8.79c0-1.67-.1-2.82-.37-3.24-.31-.42-.84-.57-1.93-.57h-1.28v-1.46c3.08-.31,5.56-1.31,7.49-2.15l.47,.22v15.43c0,4.14,.89,6.34,5.69,6.34,3.39,0,6.63-3.5,6.63-6.01v-8.54c0-1.67-.1-2.82-.36-3.24-.32-.42-.84-.57-1.93-.57h-1.93v-1.46c3.08-.31,6.21-1.31,8.14-2.15l.47,.22v18.99Z"/><path class="cls-3" d="M135.98,16.24c3.76,0,5.53,3.98,5.53,8.85-3.76,.21-8.14,.31-12.42-.16-.26-5.71,2.87-8.69,6.89-8.69Zm.26-1.73c-1.77,0-3.29,.58-5.11,1.42-1.15,.52-2.24,1.31-3.24,2.09-2.4,1.89-3.76,4.92-3.76,10,0,7.07,4.18,12.09,12.06,12.09,3.55,0,7.98-2.3,8.35-2.93l1.04-1.78-.68-.52c-1.98,1.2-3.97,2.46-6.47,2.46-6.42,0-9.45-4.18-9.45-10.31h7.62c3.14,0,6.31-.21,9.45-.73,.1-.74,.1-1.47,.1-2.2,0-5.92-4.22-9.58-9.91-9.58Z"/><path class="cls-3" d="M160.62,16.23c3.75,0,5.53,3.98,5.53,8.85-3.76,.21-8.15,.31-12.43-.16-.26-5.71,2.87-8.69,6.9-8.69Zm.25-1.73c-1.77,0-3.28,.58-5.12,1.42-1.14,.52-2.24,1.31-3.23,2.09-2.4,1.89-3.76,4.92-3.76,10,0,7.07,4.17,12.09,12.05,12.09,3.56,0,7.99-2.3,8.35-2.93l1.05-1.78-.68-.52c-1.99,1.2-3.97,2.46-6.48,2.46-6.42,0-9.44-4.18-9.44-10.31h7.61c3.14,0,6.32-.21,9.45-.73,.11-.74,.11-1.47,.11-2.2,0-5.91-4.23-9.58-9.92-9.58Z"/><path class="cls-3" d="M181.33,33.7c0,1.41,.05,2.46,.26,3.04,.21,.47,.78,.68,1.67,.73l2.34,.16v1.56c-1.83-.05-3.91-.15-6.46-.15s-4.65,.1-6.47,.15v-1.56l2.34-.16c.88-.05,1.46-.26,1.67-.73,.21-.58,.26-1.63,.26-3.04v-11.77c0-1.67-.11-2.82-.37-3.24-.31-.42-.83-.58-1.93-.58h-1.94v-1.46c3.09-.31,6.21-1.31,8.14-2.15l.48,.22v4.45h.1l3.86-3.35c1.15-.99,2.13-1.31,4.22-1.31,6.11,0,8.61,3.4,8.61,9.11v10.1c0,1.41,.05,2.46,.26,3.04,.21,.47,.79,.68,1.67,.73l2.14,.16v1.56c-1.3-.05-2.83-.15-4.28-.15s-2.97,.1-4.17,.15v-14.86c0-4.35-2.46-6.65-6.01-6.65-3.18,0-6.41,2.78-6.41,4.92v11.09h0Z"/><path class="cls-3" d="M206.04,17.57c-.55,1.59-1.44,3.33-2.13,4.62l-2.04,1.69-.59-.35c.69-1.89,1.04-3.03,1.43-4.98,.4-1.73,.55-3.62,.6-4.72,.75-.2,1.19-.44,1.89-.75,.69-.3,1.13-.64,1.79-1.04l.49,.4c-.39,2.03-.89,3.53-1.44,5.12Z"/><path class="cls-3" d="M210.93,31.56v2.15c0,3.25,3.7,4.45,6.74,4.45,3.29,0,6.1-1.93,6.1-4.76,0-1.67-.88-3.04-2.5-3.45-2.3-.58-5.17-1.15-7.68-2.09-2.5-.94-4.43-2.51-4.43-5.71,0-5.65,4.91-7.65,9.81-7.65,2.46,0,4.7,.58,6.74,1.31-.16,1.89-.21,3.82-.26,5.92h-1.46v-1.21c0-2.72-3.08-4.29-6.06-4.29-4.43,0-5.11,2.46-5.11,4.24,0,2.25,1.72,3.46,5.69,4.14,6.21,1.05,9.13,2.62,9.13,6.7,0,5.76-5.74,8.8-11.53,8.8-2.51,0-4.75-.36-7.31-1.26,.52-2.3,.57-4.82,.57-7.28h1.57Z"/><path class="cls-3" d="M60.57,49.47s1.19-1.47,2.02-2.43c.96-1.11,2.46-1.91,3.56-2.42,1.73-.8,3.96-.53,5.17-.41,1.37,.14,2.82,.47,4.23,.84,1.31,.35,5.88,1.66,7.16,2.11,1.94,.68,10.5,3.36,13.1,4.06,1.93,.53,4.41,1.23,6.35,1.72,1.91,.48,3.83,.92,5.77,1.31,1.12,.23,2.43,.49,3.57,.58,2.06,.17,3.52,.37,5.53,.12,1.96-.24,3.25-.59,4.74-1.22,1.58-.67,3.58-2.32,3.52-2.32s3.83-5.84,3.88-5.9c.07-.08-1.23-.75-1.23-.75-.88,1.3-1.72,2.32-3.25,3.3-1.02,.66-1.79,1-3.46,1.58-1.65,.57-2.59,.71-4.85,.78-2.37,.08-4.74-.17-7.06-.66-3.13-.66-7.33-1.68-8.91-2.06-1.68-.4-7.12-1.99-9.01-2.55-.98-.29-3.74-1.13-4.71-1.44-1.33-.43-2.55-.75-3.88-1.16-1.09-.34-2.18-.68-3.28-.99-.78-.22-1.56-.42-2.35-.6-.9-.21-1.81-.38-2.71-.56-.13-.03-.25-.05-.38-.08,0-.02,0-.03,0-.05,.88-.05,1.69-.14,2.77-.28,10.4-1.36,16.53-10.39,15.85-21.45-.63-10.6-9.05-17.26-21.5-16.58-10.66,.58-17.99,9.86-17.41,20.29,.57,10.34,8.53,17.47,17.78,18.1l.39,.02s-.13,.06-.23,.07c-1,.07-2.81,.25-4.22,.79-1.89,.73-3.83,2.19-3.86,2.18-.03,0-4.28,5.13-4.28,5.13l1.2,.89Zm-1.29-27.61c-.52-7.66,2.41-16.99,11.98-17.68,10.57-.79,15.58,6.72,16.05,14.37,.63,9.7-2.62,18.09-11.19,19.56-10.09,1.68-16.21-7.13-16.84-16.26Z"/><path class="cls-3" d="M138.43,53.77c-2.34,0-3.78-1.31-3.78-3.88v-4.99h1.92v4.94c0,1.42,.71,2.16,1.88,2.16s1.88-.71,1.88-2.1v-5.01h1.92v4.93c0,2.65-1.48,3.95-3.83,3.95Z"/><path class="cls-3" d="M151.84,53.63l-4.23-5.56v5.56h-1.9v-8.74h1.77l4.09,5.38v-5.38h1.9v8.74h-1.63Z"/><path class="cls-3" d="M159.07,44.89h-1.92v8.74h1.92v-8.74Z"/><path class="cls-3" d="M167.22,53.7h-1.69l-3.53-8.8h2.12l2.28,6.15,2.28-6.15h2.07l-3.53,8.8Z"/><path class="cls-3" d="M173.59,53.63v-8.74h6.58v1.71h-4.68v1.77h4.11v1.71h-4.11v1.83h4.74v1.71h-6.65Z"/><path class="cls-3" d="M188.74,53.63l-1.87-2.8h-1.51v2.8h-1.92v-8.74h3.99c2.06,0,3.29,1.09,3.29,2.88v.03c0,1.41-.76,2.3-1.87,2.71l2.13,3.12h-2.24Zm.04-5.76c0-.82-.57-1.25-1.51-1.25h-1.91v2.51h1.94c.93,0,1.47-.5,1.47-1.24v-.03h0Z"/><path class="cls-3" d="M197.05,53.76c-1.32,0-2.66-.46-3.7-1.4l1.13-1.36c.79,.65,1.61,1.06,2.6,1.06,.79,0,1.26-.31,1.26-.82v-.03c0-.49-.3-.74-1.76-1.11-1.76-.45-2.89-.94-2.89-2.67v-.03c0-1.59,1.27-2.63,3.05-2.63,1.27,0,2.36,.4,3.24,1.11l-1,1.45c-.77-.54-1.53-.86-2.27-.86s-1.12,.34-1.12,.76v.03c0,.57,.37,.76,1.88,1.15,1.77,.46,2.77,1.1,2.77,2.62v.03c0,1.73-1.32,2.71-3.2,2.71Z"/><path class="cls-3" d="M205.43,44.89h-1.92v8.74h1.92v-8.74Z"/><path class="cls-3" d="M213.06,46.67v6.97h-1.92v-6.97h-2.65v-1.77h7.23v1.77h-2.66Z"/><path class="cls-3" d="M223.06,50.15v3.48h-1.92v-3.45l-3.35-5.29h2.24l2.08,3.51,2.12-3.51h2.18l-3.35,5.26Z"/><path class="cls-3" d="M22.45,57.01c-.19,0-.38-.03-.56-.08l-.17-.05c-.29-.09-7.16-2.23-13.35-9.03C2.58,41.49,0,34.57,0,25.42V1.93C0,.87,.86,0,1.93,0H42.97c1.07,0,1.93,.87,1.93,1.93V25.42c0,9.16-2.58,16.08-8.37,22.43-6.2,6.8-13.07,8.95-13.35,9.03l-.17,.05c-.18,.06-.37,.08-.56,.08Z"/><path class="cls-7" d="M22.45,55.08l-.17-.05c-.27-.08-6.65-2.08-12.49-8.49-5.44-5.97-7.86-12.49-7.86-21.12V1.93H42.97V25.42c0,8.64-2.42,15.16-7.86,21.12-5.84,6.41-12.22,8.4-12.49,8.49l-.17,.05Z"/><path class="cls-5" d="M22.45,54.53s-6.43-1.95-12.23-8.32c-5.8-6.37-7.71-12.96-7.71-20.73V2.52H42.39V25.48c0,7.77-1.91,14.36-7.71,20.73-5.8,6.37-12.23,8.32-12.23,8.32Z"/><path class="cls-7" d="M8.9,8.92V26.6c0,4.95,1.6,9.64,4.38,13.21,5.24,6.75,9.18,7.55,9.18,7.55,0,0,3.94-.8,9.18-7.55,2.78-3.57,4.38-8.27,4.38-13.21V8.92H8.9Z"/><path class="cls-1" d="M31.09,9.5H13.81l8.64,11.22,8.64-11.22Z"/><path class="cls-1" d="M9.47,13.68v12.92c0,3.04,.62,6,1.78,8.66l7.42-9.64L9.47,13.68Z"/><path class="cls-1" d="M14.68,40.63c4.05,4.82,7.14,5.94,7.77,6.13,.62-.19,3.71-1.31,7.77-6.13l-7.77-10.1-7.77,10.1Z"/><path class="cls-1" d="M35.43,13.68l-9.2,11.95,7.42,9.64c1.16-2.66,1.78-5.62,1.78-8.66V13.68Z"/><path class="cls-6" d="M35.43,12.73v-3.24h-3.61l-9.37,12.17L13.08,9.5h-3.61v3.24l9.93,12.89-7.88,10.23c.61,1.28,1.35,2.49,2.21,3.6,.19,.25,.38,.49,.57,.72l8.15-10.59,8.15,10.59c.19-.23,.38-.47,.57-.72,.86-1.11,1.6-2.32,2.21-3.6l-7.88-10.23,9.93-12.89Z"/><path class="cls-7" d="M31.78,25.91s.04-.03,.04-.03c.04,.01,.15,.11,.22,.17,.23,.2,.58,.51,1.15,.51,.6,0,.88-.39,1.07-.64,.06-.08,.12-.16,.17-.21,.05-.05,.12-.09,.18-.12,.13-.08,.31-.19,.32-.41,.01-.22-.16-.38-.33-.5-.08-.06-.23-.22-.32-.32l-.03-.03c-.3-.32-.67-.5-1.04-.5h0c-.27,0-.52,.11-.7,.3-.35,.38-.55,.4-.58,.38-.01,0-.03-.04-.03-.07,.02-.05,.11-.16,.18-.24,.29-.35,.73-.89,.56-1.56-.16-.61-.44-1.04-.84-1.3-.06-.04-.1-.1-.14-.16-.07-.11-.19-.28-.44-.28s-.36,.18-.44,.28c-.04,.06-.08,.12-.14,.16-.4,.26-.68,.69-.84,1.3-.18,.68,.26,1.21,.56,1.56,.07,.08,.16,.19,.18,.24,0,.04-.01,.07-.02,.07-.03,.02-.23,0-.58-.38-.18-.19-.42-.3-.69-.3h0c-.36,0-.74,.18-1.03,.5l-.05,.06c-.09,.09-.22,.23-.29,.29-.17,.12-.34,.28-.33,.5,.01,.22,.19,.33,.32,.41,.06,.04,.13,.08,.18,.12,.05,.05,.11,.13,.17,.21,.18,.26,.46,.64,1.07,.64,.57,0,.92-.31,1.15-.51,.07-.06,.18-.16,.22-.17,0,0,.01,0,.04,.03,.01,.01,0,0,.02,.01,.02,.02,.07,.09,0,.27-.22,.5-.26,1.19-.1,1.59,.1,.26,.09,.77,.03,1.1-.01,.06-.02,.11-.04,.17-.07,.34-.15,.69-.02,.99,.06,.12,.23,.51,.66,.51h.01c.43,0,.6-.38,.65-.51,.14-.3,.06-.65-.01-.99-.01-.06-.03-.12-.04-.17-.06-.33-.07-.84,.03-1.1,.16-.41,.11-1.09-.1-1.59-.08-.17-.03-.25,0-.27,0,0,0,0,.02-.01Z"/><path class="cls-7" d="M19.65,16.08c.02,.11,.1,.2,.21,.23,.14,.04,.28,.05,.4,.06,.04,.09,.12,.16,.22,.17,.2,.03,.81,.12,1.52,.15-.05,1.52-.22,1.96-.25,2.04-.1,.1-.08,.23,0,.34l.49,.63c.05,.07,.14,.11,.23,.11s.17-.04,.23-.11l.49-.63c.09-.11,.1-.25,0-.35-.04-.07-.21-.51-.26-2.04,.71-.02,1.32-.11,1.51-.15,.1-.02,.18-.08,.22-.17,.12,0,.26-.02,.4-.06,.11-.03,.19-.12,.21-.23,.01-.07,0-.14-.04-.2,.04-.04,.07-.1,.08-.17,.01-.11-.03-.21-.12-.28-.3-.2-.6-.56-.8-.84,.04,0,.09-.02,.13-.03,.1-.03,.17-.11,.2-.2,.02-.1,0-.2-.08-.28-.22-.21-.52-.61-.73-.9,.06-.03,.1-.09,.13-.15,.04-.1,.02-.21-.05-.29-.08-.09-.23-.32-.36-.52,.05-.03,.09-.08,.11-.14,.04-.11,0-.22-.07-.3-.24-.23-.42-.47-.53-.65,.02-.03,.04-.07,.05-.11,.02-.09,0-.19-.07-.26-.14-.14-.26-.31-.39-.52-.05-.09-.14-.14-.25-.14s-.19,.05-.25,.14c-.13,.21-.25,.38-.39,.52-.07,.07-.09,.17-.07,.26,0,.04,.03,.08,.05,.11-.11,.18-.29,.42-.53,.65-.08,.08-.11,.19-.07,.3,.02,.06,.06,.11,.11,.14-.13,.21-.28,.43-.36,.52-.07,.08-.09,.19-.05,.29,.02,.06,.07,.12,.13,.15-.21,.29-.51,.69-.73,.9-.07,.07-.1,.18-.08,.28,.02,.1,.1,.18,.2,.2,.04,.01,.08,.02,.13,.03-.2,.28-.5,.63-.8,.84-.09,.06-.14,.17-.12,.28,0,.06,.04,.12,.08,.17-.03,.06-.05,.13-.04,.2Z"/><path class="cls-7" d="M28.3,40.39c-.35-.01-.78-.09-.85-.36,0-.02,0-.05,0-.07,0-.14,.09-.3,.25-.45,.06-.06,.1-.15,.09-.23,0-.09-.05-.17-.13-.21-.37-.24-.8-.69-1.26-1.3-.07-.09-.18-.13-.29-.11-.11,.03-.19,.11-.22,.23-.09,.5-.38,1.41-1.27,1.91-.09,.05-.14,.14-.15,.23,0,.1,.04,.19,.12,.25,.26,.19,.34,.39,.37,.5,.01,.05,.02,.11,.02,.16,0,.23-.11,.45-.3,.63-.18,.16-.41,.26-.65,.28-.08,0-.15,.04-.2,.1-.05,.06-.07,.14-.07,.21,0,.04,0,.09,0,.13,0,.54-.37,.98-.67,1.25h0s-.04,.02-.09,0c-.1-.06-.12-.13-.12-.33v-.33c0-.1,0-.21,0-.3v-3.66c.38-.05,.71-.18,.98-.39,.38-.31,.59-.75,.59-1.28,0-.68-.4-1.17-.94-1.44,0,0,0-.01,0-.02l.63-1.97c.04-.13-.02-.27-.14-.34-.45-.24-.99-.37-1.56-.37s-1.11,.13-1.56,.37c-.12,.06-.18,.21-.14,.34l.63,1.97s0,.01,0,.02c-.54,.27-.94,.76-.94,1.44,0,.53,.2,.98,.59,1.28,.26,.21,.6,.34,.97,.39v3.76c0,.07,0,.14,0,.21v.33c0,.19-.03,.26-.12,.32-.04,.03-.09,.01-.09,.01h0c-.31-.27-.67-.71-.67-1.25,0-.04,0-.08,0-.13,0-.08-.02-.15-.07-.21-.05-.06-.12-.1-.2-.1-.25-.01-.48-.11-.66-.28-.19-.18-.3-.41-.3-.63,0-.06,0-.11,.02-.17,.02-.1,.1-.31,.37-.49,.08-.06,.13-.15,.12-.25,0-.1-.06-.19-.15-.23-.89-.5-1.18-1.41-1.27-1.91-.02-.11-.11-.2-.22-.23-.11-.03-.22,.02-.29,.11-.45,.61-.89,1.05-1.26,1.3-.07,.05-.12,.13-.13,.21,0,.09,.03,.17,.09,.23,.16,.15,.25,.31,.25,.45,0,.02,0,.04,0,.06-.06,.27-.49,.35-.84,.36-.11,0-.2,.07-.25,.17-.04,.1-.03,.22,.04,.3,.36,.43,.64,.95,.74,1.35,.04,.15,.19,.25,.34,.21,.37-.08,.79-.01,1.11,.19,.33,.2,.52,.5,.58,.89,.01,.08,.06,.16,.13,.2,.07,.04,.16,.06,.24,.03,.54-.17,1.11,.08,1.4,.24,.55,.31,1,1.14,1.08,1.98,.01,.11,.08,.2,.18,.24l.16,.06s.07,.02,.1,.02c.04,0,.07,0,.11-.02l.16-.07c.1-.04,.16-.13,.18-.23,.11-.89,.58-1.73,1.13-2.05,.42-.23,.91-.3,1.35-.18,.08,.02,.16,0,.23-.04,.07-.05,.11-.12,.13-.2,.06-.39,.25-.69,.58-.89,.32-.2,.75-.27,1.11-.19,.15,.03,.31-.06,.34-.21,.09-.4,.37-.92,.74-1.35,.07-.08,.09-.2,.04-.3-.05-.1-.15-.17-.25-.17Z"/><path class="cls-7" d="M25.05,23.45l-.49-.29s-.1-.04-.15-.04h-.11c-.17,0-.48-.03-.59-.09-.24-.12-.47-.18-.69-.19-.23,0-.42,.05-.56,.12-.13-.06-.32-.11-.54-.12h-.05s-.02,0-.03,0c-.2,.01-.41,.07-.62,.18-.11,.06-.43,.1-.59,.1h-.11c-.05,0-.11,0-.15,.03l-.49,.29c-.09,.05-.14,.15-.14,.25v4.5c0,.09,.04,.17,.1,.22,.07,.05,.15,.08,.24,.06l2.4-.48,2.4,.48s.04,0,.06,0c.07,0,.13-.02,.18-.06,.07-.05,.1-.14,.1-.22v-4.5c0-.1-.06-.2-.14-.25Z"/><path class="cls-7" d="M16.28,26.38c-.06-.06-.14-.09-.21-.09-.05,0-1.24,.04-1.86,.54-.37,.29-.56,.68-.65,1,0,0,0,0,0,0-.02,.07-.06,.11-.19,.19-.01-.06-.02-.14-.02-.23,0-.2,.02-.35,.11-.6,.03-.09,.02-.19-.04-.26-.09-.12-.11-.23-.12-.29,0-.05,.03-.13,.07-.24,.03-.07,.03-.16,0-.23-.05-.11-.06-.22-.06-.31,.19-.05,.34-.12,.47-.22,.06,.07,.14,.14,.23,.19,.09,.05,.18,.07,.26,.07,.09,0,.18-.03,.25-.08,.14-.1,.2-.28,.17-.48-.02-.1-.06-.2-.11-.28,.24-.15,.44-.44,.56-.83,.13-.39,.13-.73,.03-.99,.09-.04,.18-.09,.25-.16,.15-.14,.2-.33,.15-.49-.05-.16-.21-.28-.41-.31-.1-.01-.2,0-.3,.02-.07-.28-.28-.55-.61-.79-.33-.24-.66-.35-.94-.34,0-.1-.03-.19-.08-.29-.09-.18-.25-.3-.42-.3h0c-.17,0-.33,.11-.42,.3-.04,.09-.07,.19-.08,.29-.29-.02-.61,.1-.94,.34-.33,.24-.54,.52-.61,.79-.1-.02-.2-.03-.3-.02-.2,.03-.36,.14-.41,.31-.05,.17,0,.35,.15,.49,.07,.07,.16,.13,.25,.16-.1,.27-.09,.61,.03,1,.13,.39,.32,.67,.56,.82-.05,.08-.09,.18-.11,.28-.04,.2,.03,.38,.17,.48,.07,.05,.16,.08,.25,.08,.09,0,.18-.02,.26-.07,.09-.05,.17-.12,.23-.19,.17,.14,.4,.23,.68,.26,0,.14,0,.34-.08,.51-.04,.08-.04,.17,0,.25,.05,.1,.07,.19,.07,.29,0,.12-.01,.14-.09,.27-.05,.08-.06,.19-.01,.28,.1,.2,.14,.39,.15,.5,0,.03,0,.07,0,.1-.13-.12-.25-.25-.28-.34,0,0,0,0,0,0-.12-.32-.3-.67-.59-.94-.7-.64-1.47-.62-1.5-.62-.08,0-.13,.02-.18,.06-.06,.04-.08,.11-.09,.19,0,.06-.17,1.37,.55,2.04,.38,.36,.96,.43,1.35,.43h.02c.34,.04,.61,.2,.71,.36,0,0,0,.01,0,.02,.04,.13,.02,.22-.1,.41-.07,.11-.05,.26,.04,.35,.18,.19,.29,.46,.45,.88,.05,.14,.11,.28,.18,.45,.04,.09,.12,.16,.23,.18,.01,0,.03,0,.04,0,.09,0,.17-.04,.22-.11l.26-.34c.06-.08,.08-.2,.03-.29-.14-.31-.19-.6-.19-.76,0-.07,0-.14,.03-.21,.03-.1,0-.21-.08-.28-.15-.14-.22-.26-.26-.42,0-.12,.02-.33,.63-.36,0,0,.01,0,.02,0,.29-.01,.73-.08,1.24-.31,.92-.43,1.05-1.81,1.05-1.87,0-.08-.02-.16-.07-.22Z"/><path class="cls-9" d="M10.81,22.83c-.04-.08-.06-.16-.07-.25-.07-.02-.15-.03-.24-.02-.2,.03-.24,.17-.1,.31,.06,.06,.13,.1,.2,.12,.06-.07,.13-.12,.2-.17Z"/><path class="cls-9" d="M11.47,25.19c-.05,0-.1,0-.16-.02-.05,.06-.08,.14-.1,.22-.03,.2,.09,.29,.27,.19,.07-.04,.14-.1,.18-.16-.05-.08-.08-.16-.09-.25-.03,0-.07,0-.1,0Z"/><path class="cls-9" d="M14.04,25.18c-.02,.09-.05,.17-.09,.25,.04,.06,.11,.12,.18,.16,.18,.09,.3,0,.26-.19-.01-.08-.05-.16-.1-.22-.05,.01-.11,.02-.16,.02-.03,0-.07,0-.1,0Z"/><path class="cls-9" d="M15.01,22.99c.07-.02,.14-.06,.2-.12,.14-.14,.09-.28-.1-.31-.08-.01-.16,0-.24,.02,0,.09-.03,.17-.07,.25,.08,.04,.14,.1,.2,.16Z"/><path class="cls-9" d="M13.02,21.23c0-.07-.02-.16-.05-.23-.09-.18-.24-.18-.33,0-.04,.07-.05,.15-.05,.23,.08,.04,.16,.08,.22,.14,.06-.06,.13-.11,.21-.14Z"/><path class="cls-5" d="M11.32,22.96c.12-.35,.32-.56,.58-.61,.03,0,.06,0,.09,0,.01-.03,.02-.06,.03-.09,.12-.23,.39-.36,.76-.36-.12-.53-.63-.62-1.25-.17-.61,.45-.68,.96-.22,1.24Z"/><path class="cls-5" d="M11.46,24.08s0-.05,0-.08c0-.03,.01-.06,.02-.09-.03-.02-.05-.04-.07-.06-.11-.12-.17-.28-.17-.47,0-.11,.02-.23,.06-.36-.54-.05-.78,.41-.55,1.13,.23,.72,.7,.95,1.11,.59-.26-.2-.4-.43-.4-.66Z"/><path class="cls-5" d="M13.59,22.26s.02,.05,.03,.09c.04,0,.07,0,.09,0,.26,.04,.46,.26,.58,.61,.46-.28,.39-.8-.22-1.24-.61-.45-1.12-.35-1.24,.17,.36,0,.63,.14,.75,.36Z"/><path class="cls-5" d="M14.31,23.02c.04,.13,.06,.25,.06,.36,0,.19-.06,.35-.17,.47-.02,.02-.04,.04-.07,.06,.01,.03,.02,.06,.02,.09,0,.03,0,.05,0,.08,0,.23-.14,.46-.41,.66,.41,.36,.88,.13,1.11-.59,.23-.72-.01-1.18-.55-1.13Z"/><path class="cls-5" d="M12.89,24.92s-.05-.03-.08-.05c-.03,.02-.06,.04-.08,.05-.23,.11-.52,.06-.82-.15-.22,.5,.15,.88,.91,.88s1.12-.38,.9-.87c-.3,.21-.59,.26-.82,.15Z"/><path class="cls-5" d="M12.81,22.2c-.5,0-.71,.28-.47,.62h0c-.25-.33-.58-.22-.74,.26-.15,.48,.05,.76,.44,.64h0c-.39,.14-.39,.49,.02,.78,.4,.29,.73,.19,.75-.22h0c.01,.42,.34,.52,.75,.22,.4-.29,.41-.64,.02-.78h0c.4,.12,.6-.17,.44-.65-.15-.48-.48-.59-.74-.26h0c.23-.34,.02-.62-.48-.62Zm-.61,1.28c0-.34,.27-.61,.61-.61s.61,.27,.61,.61-.27,.61-.61,.61-.61-.27-.61-.61Z"/><path class="cls-8" d="M22.45,33.4c-.52,0-1.02,.12-1.43,.33l.63,1.97c.48-.18,1.12-.18,1.6,0l.63-1.97c-.41-.22-.91-.33-1.43-.33Z"/><path class="cls-9" d="M31.23,30.27c-.16,0-.28-.09-.4-.34-.11-.26,0-.63,.07-.99,.07-.36,.09-.93-.04-1.26-.13-.33-.09-.94,.1-1.37,.19-.43-.09-.61-.09-.61-.47-.4-.67,.59-1.6,.59-.63,0-.77-.53-1.04-.78-.27-.25-.66-.25-.2-.59,.11-.08,.28-.26,.39-.38,.43-.46,1.01-.54,1.32-.2,.76,.82,1.14,.4,1.1,.07-.04-.28-.95-.89-.74-1.68,.16-.6,.43-.94,.72-1.13,.24-.16,.24-.39,.42-.39s.18,.24,.43,.39c.29,.19,.56,.53,.71,1.13,.21,.79-.7,1.39-.74,1.68-.04,.33,.34,.75,1.1-.07,.31-.33,.89-.26,1.32,.2,.11,.11,.27,.3,.38,.38,.46,.34,.08,.34-.19,.59-.27,.25-.41,.78-1.04,.78-.92,0-1.12-.99-1.6-.59,0,0-.27,.19-.09,.61,.19,.43,.23,1.04,.1,1.37-.13,.33-.12,.9-.04,1.26,.07,.36,.19,.73,.07,.99-.11,.25-.24,.34-.4,.34h-.01Z"/><path class="cls-2" d="M22.62,23.23c.2-.13,.53-.16,.96,.05,.19,.1,.58,.13,.72,.13v3.92c-.19-.02-.57-.15-.73-.24-.41-.21-.72-.18-.95-.07v-3.8Z"/><path class="cls-2" d="M20.61,23.41c.14,0,.53-.03,.72-.13,.43-.22,.76-.18,.96-.05v3.8c-.23-.12-.54-.14-.95,.07-.16,.08-.54,.22-.73,.24v-3.93Z"/><path class="cls-2" d="M24.6,23.51l.31,.18v4.22l-.31-.33v-4.07Z"/><path class="cls-2" d="M20,23.69l.31-.18v4.07l-.31,.33v-4.22Z"/><path class="cls-2" d="M22.45,27.51v.18l-2.27,.46,.5-.53c.18-.01,.5-.13,.65-.21,.37-.19,.92-.28,1.13,.1Z"/><path class="cls-2" d="M22.45,27.51v.18l2.27,.46-.5-.53c-.18-.01-.5-.13-.65-.21-.37-.19-.92-.28-1.13,.1Z"/><path class="cls-9" d="M22.61,38.65c.8,0,1.56-.45,1.56-1.4s-.92-1.4-1.72-1.4c-.8,0-1.72,.45-1.72,1.4s.76,1.4,1.56,1.4v4.02c0,.07,0,.14,0,.22v.33c0,.22-.03,.41-.24,.56-.13,.09-.27,.08-.35,.04l-.05-.02-.04-.03c-.35-.31-.77-.82-.77-1.47,0-.05,0-.11,0-.16-.3-.02-.6-.14-.83-.36-.25-.24-.39-.54-.39-.84,0-.08,0-.15,.03-.23,.04-.17,.16-.43,.48-.66-.88-.49-1.28-1.36-1.41-2.11-.35,.46-.84,1.04-1.33,1.36,.2,.19,.34,.42,.34,.66,0,.04,0,.09-.01,.13-.08,.36-.46,.56-1.11,.59,.35,.42,.68,.98,.8,1.47,.43-.1,.93-.02,1.33,.22,.4,.25,.64,.62,.71,1.09,.54-.17,1.14,0,1.63,.27,.64,.36,1.14,1.28,1.22,2.2l.16,.06,.16-.06c.12-.92,.59-1.87,1.28-2.26,.49-.28,1.06-.34,1.57-.2,.07-.47,.31-.84,.71-1.09,.39-.24,.9-.32,1.33-.22,.11-.48,.44-1.04,.8-1.47-.65-.03-1.03-.22-1.11-.59,0-.04-.01-.09-.01-.13,0-.23,.14-.47,.34-.66-.49-.32-.98-.9-1.33-1.36-.14,.74-.53,1.62-1.41,2.11,.32,.23,.44,.49,.48,.66,.02,.08,.03,.15,.03,.23,0,.3-.14,.61-.39,.84-.23,.22-.53,.34-.83,.36,0,.05,0,.11,0,.16,0,.65-.42,1.16-.77,1.47l-.04,.03-.05,.02c-.09,.04-.23,.04-.35-.04-.22-.15-.24-.34-.24-.56v-.33c0-.11,0-.21,0-.3v-2.65s0-.71,0-1.28h0Z"/><path class="cls-4" d="M22.45,16.69s-.08,0-.11,0c-.02,0-.04,0-.05,0-.06,1.88-.31,2.2-.31,2.2l.49,.63,.49-.63s-.26-.32-.32-2.2c-.06,0-.12,0-.18,0Z"/><path class="cls-9" d="M24.66,15.77s.17-.03,.35-.09c-.6-.4-1.14-1.31-1.14-1.31,0,0,.33,0,.55-.07-.39-.38-1.02-1.31-1.02-1.31,0,0,.19-.02,.35-.05-.18-.21-.62-.93-.62-.93,0,0,.11,0,.31-.02-.52-.48-.75-1.02-.75-1.02,0,0,.11,.01,.18-.01-.18-.19-.32-.4-.43-.58-.11,.18-.24,.39-.43,.58,.07,.03,.18,.01,.18,.01,0,0-.23,.53-.75,1.02,.19,.02,.31,.02,.31,.02,0,0-.44,.72-.62,.93,.16,.02,.35,.05,.35,.05,0,0-.63,.93-1.02,1.31,.23,.06,.55,.07,.55,.07,0,0-.54,.91-1.14,1.31,.19,.06,.35,.09,.35,.09,0,0-.11,.13-.31,.26,.41,.1,.78,.01,.78,.01,0,0-.09,.11-.19,.21,.38,.06,1.14,.16,1.93,.15,.78,0,1.55-.09,1.93-.15-.09-.11-.19-.21-.19-.21,0,0,.37,.09,.78-.01-.2-.13-.31-.26-.31-.26Z"/><path class="cls-5" d="M12.81,23.81c.18,0,.33-.15,.33-.33s-.15-.33-.33-.33-.33,.15-.33,.33,.15,.33,.33,.33Z"/><path class="cls-9" d="M14.37,27.06c-.31,.25-.47,.58-.55,.86,0,0,0,0,0,0-.07,.27-.31,.34-.57,.53-.16-.22-.19-.39-.2-.64,0-.25,.03-.44,.13-.7-.14-.19-.17-.36-.17-.44,0-.11,.03-.23,.09-.37-.06-.14-.08-.27-.09-.38-.06,0-.12,0-.19,0,0,.17,0,.41-.12,.62,.06,.13,.1,.26,.1,.41,0,.18-.03,.25-.13,.41,.11,.22,.17,.45,.18,.62,0,.16,0,.51-.1,.68-.26-.25-.62-.54-.73-.79,0,0,0,0,0,0-.1-.29-.26-.6-.52-.84-.62-.57-1.3-.55-1.3-.55,0,0-.16,1.21,.47,1.8,.33,.31,.85,.36,1.19,.35h0c.42,.04,.81,.25,.96,.53,0,.01,0,.03,.01,.04,.08,.25,0,.44-.13,.64,.3,.3,.4,.72,.69,1.42l.26-.34c-.14-.31-.22-.65-.22-.88,0-.1,.01-.2,.04-.28-.2-.19-.3-.35-.34-.59-.03-.61,.62-.67,.9-.69,0,0,0,0,0,0,.26,0,.67-.06,1.14-.29,.79-.37,.89-1.64,.89-1.64,0,0-1.13,.03-1.7,.48Z"/></svg>