<svg xmlns="http://www.w3.org/2000/svg"  width="1002" height="337.857" viewBox="0 0 1002 337.857">
  <polygon points="146.688 251.95 260.137 336.857 871.227 184.099 146.688 251.95" fill="#da291c"/>
  <g>
    <path d="M243.388,55.429a28.082,28.082,0,0,1,41.957,0,35.2,35.2,0,0,1,8.836,23.626c0,18.212-13.349,33.039-29.829,33.039a28.463,28.463,0,0,1-20.918-9.478,35.847,35.847,0,0,1-.046-47.187M264.37,20.246c-32.689,0-59.318,26.438-59.318,58.974a58.032,58.032,0,0,0,17.159,41.253,59.689,59.689,0,0,0,84.356,0,58.479,58.479,0,0,0-.182-82.811A58.952,58.952,0,0,0,264.37,20.246" fill="#fff"/>
    <path d="M963.7,22.131,930.6,75.064V22.131H900.947V136.248H930.6V75.626l34.538,60.622H1001s-39.285-58.7-41.1-61.069c1.9-2.325,39.521-53.048,39.521-53.048Z" fill="#fff"/>
    <polygon points="745.845 22.121 745.845 63.575 709.957 63.575 709.957 22.121 680.241 22.121 680.241 136.248 709.957 136.248 709.957 86.763 745.845 86.763 745.845 136.248 775.857 136.248 775.857 22.121 745.845 22.121" fill="#fff"/>
    <polygon points="803.379 22.121 803.379 136.248 875.874 136.248 875.874 112.281 833.248 112.281 833.248 86.763 874.558 86.763 874.558 64.345 833.248 64.345 833.248 46.088 875.874 46.088 875.874 22.121 803.379 22.121" fill="#fff"/>
    <path d="M654.641,92.771c-11.634,12.979-22.977,17.167-36.955,17.167C593.93,109.938,577,91.464,577,68.676s16.6-41.263,40.351-41.263c14.4,0,26.942,5.51,37.293,18.022l1.531,1.921V15.35C643.184,5.246,630.58,1,615.405,1c-40.778,0-68.72,27.622-68.72,67.958A67.608,67.608,0,0,0,566.5,117.014a68.784,68.784,0,0,0,48.909,20.214c14.219,0,28.107-4.609,40.767-14.383V91.015Z" fill="#fff"/>
    <polygon points="500.633 136.248 500.633 47.33 526.203 47.33 526.203 22.121 445.706 22.121 445.706 47.33 470.909 47.33 470.909 136.248 500.633 136.248" fill="#fff"/>
    <path d="M3.468,98.248c6.68,6.6,24.27,14.155,34.427,13.831,9.225-.355,19-3.667,19.274-15.133,0-6.468-3.888-10.141-10.246-13.424-4.612-2.381-8.979-4.346-15.439-7.073C21.248,72.119,1,60.719,1,36.7,1.317,16.743,20.04,1.544,44.3,1.172,57.991.963,71.963,4.043,81.8,10.062l.012,31.59-1.53-1.658C74.01,33.2,60.047,24.959,46.751,25.586c-4.77.225-8.733,1.605-11.488,3.964-2.812,2.4-3.863,4.451-3.908,7.78-.09,6.579,5.809,9.423,15.614,13.68l8.176,3.448c21.161,8.916,32.768,21.894,32.439,40.775a40.457,40.457,0,0,1-13.958,29.921c-8.782,7.783-21.322,12.195-33.83,12.108-17.943-.124-31.1-5.316-37.858-9.252V96.736Z" fill="#fff"/>
    <path d="M343.276,136.248h29.812V45.623h12.487c4.817-.127,8.609,1.094,11.122,3.433,2.571,2.393,3.924,6.07,3.924,10.266,0,3.365-1.125,15.23-15.287,15.23H374.157l29.439,61.7h35.866s-16.041-24.876-27.824-43.071C423.176,87.315,430.4,75.372,430.4,60.061c0-12.765-4.671-23.238-12.609-29.93-6.08-5.165-14.415-8.033-23.55-8.033H343.276Z" fill="#fff"/>
    <path d="M148,75.111H139.52V45.623h8.695c4.373-.129,7.815,1.115,10.1,3.5,2.333,2.439,3.561,6.186,3.561,10.463C161.873,63.017,160.852,75.111,148,75.111ZM153.7,22.1h-43.89v114.15H139.52V97.169H153.7c21.255,0,36.158-15.084,36.158-37.108,0-12.765-4.671-23.238-12.609-29.93C171.165,24.966,162.83,22.1,153.7,22.1Z" fill="#fff"/>
  </g>
</svg>
