<?xml version="1.0" encoding="UTF-8"?> <svg xmlns="http://www.w3.org/2000/svg" id="a" width="190" height="63" viewBox="0 0 190 63"><path d="M47.12,15.89c.67-3.68,1.59-8.28,7.78-11.54,4.85-2.51,11.03-2.92,15.55-2.92,20.57,0,20.57,10.62,20.57,15.8v23.58c0,2.84,.25,3.59,1.51,5.35h-16.97v-3.35c-2.17,1.5-6.19,4.35-14.3,4.35-10.87,0-15.63-6.6-15.63-13.96,0-2.59,.58-6.19,3.68-9.28,3.93-4.01,8.61-4.68,16.22-5.68,4.77-.67,6.6-1.09,9.2-1.84-.08-2.93-.92-4.93-5.86-4.93-3.93,0-5.01,1-5.6,4.01l-16.14,.42Zm22.4,11.79c-1.42,.34-2.93,.67-4.43,1.17-3.35,1.34-3.51,3.35-3.51,3.85,0,1.17,1.01,3.35,4.27,3.35,2.42,0,6.43-1.59,7.94-4.94,.84-1.84,.84-3.59,.84-5.1-1.67,.58-3.35,1.17-5.1,1.67" fill="#f48120"></path><path d="M89.49,2.84h17.97l4.27,18.64c.92,5.1,1.17,6.27,2.01,12.71,.75-6.78,1.08-8.19,2.09-13.21l4.35-18.15h17.89l-15.8,45.82c-1.17,3.26-2.34,6.77-5.1,9.45-3.68,3.59-6.69,3.67-12.04,3.67-3.85,0-5.68-.16-9.11-.58v-12.29c1.42,.08,3.26,.25,4.85,.25,2.34,0,3.68-.5,3.68-2.09,0-.75-1.01-3.43-1.34-4.43L89.49,2.84Z" fill="#f48120"></path><path d="M177.01,7.27c4.1,3.93,6.78,10.45,6.78,17.31,0,13.63-9.45,23.24-25.84,23.24-17.47,0-24.67-11.37-24.67-22.99,0-14.21,9.61-23.91,25.59-23.83,8.78,.09,14.8,3.1,18.14,6.27m-26.59,17.05c0,4.18,1,11.46,8.03,11.46,6.02,0,7.95-5.1,7.95-11.62,0-2.59-.17-11.29-8.03-11.04-6.52,.17-7.94,6.35-7.94,11.2" fill="#f48120"></path><path d="M186.05,3.19c1.76,0,3.23,1.43,3.23,3.25s-1.44,3.23-3.23,3.23-3.23-1.46-3.23-3.23,1.46-3.25,3.23-3.25m0,5.9c1.46,0,2.65-1.19,2.65-2.65s-1.2-2.67-2.65-2.67-2.65,1.18-2.65,2.67,1.19,2.65,2.65,2.65m-.63-.92h-.74v-3.47h1.62c.2,0,1.31,0,1.31,1.03,0,.66-.47,.85-.64,.93l.64,1.51h-.78l-.57-1.38h-.84v1.38Zm0-1.96h.77c.25,0,.66-.06,.66-.49,0-.2-.14-.46-.59-.46h-.83v.94Z" fill="#f48120"></path><polygon points="15.94 46.01 44.39 46.01 44.39 33.05 28.69 33.05 19.32 42.58 14.99 42.58 44.56 12.53 44.56 4.74 3.94 46.01 11.6 46.01 15.94 46.01" fill="#f48120"></polygon><polygon points="1 36.48 1 44.6 42.23 2.71 3.59 2.71 3.59 15.58 17.15 15.58 26.49 6.09 30.82 6.09 1 36.48" fill="#f48120"></polygon></svg> 