<svg width="54" height="32" viewBox="0 0 54 32" fill="none" xmlns="http://www.w3.org/2000/svg">
<path d="M15.0802 11.6215C15.0802 12.28 15.1514 12.8139 15.276 13.2055C15.4183 13.597 15.5963 14.0241 15.8455 14.4868C15.9345 14.6292 15.9701 14.7716 15.9701 14.8962C15.9701 15.0742 15.8633 15.2521 15.6319 15.4301L14.5107 16.1776C14.3505 16.2844 14.1903 16.3377 14.048 16.3377C13.87 16.3377 13.692 16.2488 13.5141 16.0886C13.2649 15.8216 13.0513 15.5369 12.8734 15.2521C12.6954 14.9496 12.5174 14.6114 12.3216 14.2021C10.9335 15.8394 9.18936 16.6581 7.0893 16.6581C5.59434 16.6581 4.40193 16.231 3.52988 15.3767C2.65782 14.5224 2.21289 13.3834 2.21289 11.9597C2.21289 10.4469 2.7468 9.2189 3.83243 8.29345C4.91805 7.368 6.35962 6.90528 8.19272 6.90528C8.79782 6.90528 9.42072 6.95867 10.0792 7.04765C10.7377 7.13664 11.414 7.27902 12.1259 7.43919V6.14C12.1259 4.78742 11.8411 3.84418 11.2894 3.29246C10.7199 2.74075 9.75886 2.4738 8.38849 2.4738C7.76559 2.4738 7.12489 2.54499 6.4664 2.70516C5.80791 2.86533 5.16721 3.0611 4.54431 3.31026C4.25956 3.43484 4.04599 3.50603 3.92141 3.54162C3.79683 3.57722 3.70785 3.59502 3.63666 3.59502C3.3875 3.59502 3.26292 3.41704 3.26292 3.04331V2.17125C3.26292 1.88649 3.29851 1.67293 3.3875 1.54835C3.47649 1.42377 3.63666 1.29919 3.88582 1.17461C4.50872 0.854261 5.2562 0.587305 6.12825 0.373739C7.00031 0.142377 7.92576 0.0355942 8.9046 0.0355942C11.0225 0.0355942 12.5708 0.516116 13.5674 1.47716C14.5463 2.4382 15.0446 3.89757 15.0446 5.85525V11.6215H15.0802ZM7.85457 14.3267C8.44188 14.3267 9.04698 14.2199 9.68767 14.0063C10.3284 13.7928 10.8979 13.4012 11.3784 12.8673C11.6632 12.5292 11.8767 12.1554 11.9835 11.7283C12.0903 11.3012 12.1615 10.785 12.1615 10.1799V9.43247C11.6454 9.30789 11.0936 9.2011 10.5241 9.12992C9.95463 9.05873 9.40292 9.02313 8.85121 9.02313C7.65881 9.02313 6.78675 9.2545 6.19944 9.73502C5.61214 10.2155 5.32738 10.8918 5.32738 11.7817C5.32738 12.6181 5.54095 13.241 5.98588 13.6682C6.41301 14.1131 7.03591 14.3267 7.85457 14.3267ZM22.1456 16.2488C21.8253 16.2488 21.6117 16.1954 21.4694 16.0708C21.327 15.964 21.2024 15.7148 21.0956 15.3767L16.9133 1.61954C16.8065 1.26359 16.7531 1.03223 16.7531 0.907652C16.7531 0.622899 16.8955 0.462725 17.1803 0.462725H18.9244C19.2625 0.462725 19.4939 0.516116 19.6185 0.640696C19.7608 0.747478 19.8676 0.996638 19.9744 1.33478L22.9643 13.1165L25.7407 1.33478C25.8296 0.978841 25.9364 0.747478 26.0788 0.640696C26.2212 0.533913 26.4703 0.462725 26.7907 0.462725H28.2145C28.5526 0.462725 28.784 0.516116 28.9263 0.640696C29.0687 0.747478 29.1933 0.996638 29.2645 1.33478L32.0764 13.2588L35.1553 1.33478C35.2621 0.978841 35.3867 0.747478 35.5113 0.640696C35.6536 0.533913 35.885 0.462725 36.2054 0.462725H37.8605C38.1452 0.462725 38.3054 0.605102 38.3054 0.907652C38.3054 0.996638 38.2876 1.08562 38.2698 1.19241C38.252 1.29919 38.2164 1.44157 38.1452 1.63733L33.8561 15.3945C33.7494 15.7504 33.6248 15.9818 33.4824 16.0886C33.34 16.1954 33.1087 16.2666 32.8061 16.2666H31.2756C30.9374 16.2666 30.7061 16.2132 30.5637 16.0886C30.4213 15.964 30.2967 15.7326 30.2255 15.3767L27.467 3.89757L24.7262 15.3589C24.6372 15.7148 24.5305 15.9462 24.3881 16.0708C24.2457 16.1954 23.9965 16.2488 23.6762 16.2488H22.1456ZM45.0149 16.7293C44.0895 16.7293 43.164 16.6225 42.2742 16.4089C41.3843 16.1954 40.6902 15.964 40.2275 15.697C39.9428 15.5369 39.747 15.3589 39.6758 15.1987C39.6046 15.0386 39.569 14.8606 39.569 14.7004V13.7928C39.569 13.419 39.7114 13.241 39.9783 13.241C40.0851 13.241 40.1919 13.2588 40.2987 13.2944C40.4055 13.33 40.5657 13.4012 40.7436 13.4724C41.3487 13.7394 42.0072 13.9529 42.7013 14.0953C43.4132 14.2377 44.1073 14.3089 44.8192 14.3089C45.9404 14.3089 46.8124 14.1131 47.4175 13.7216C48.0226 13.33 48.343 12.7605 48.343 12.0308C48.343 11.5325 48.1828 11.1232 47.8625 10.785C47.5421 10.4469 46.937 10.1444 46.065 9.8596L43.4844 9.05873C42.1852 8.64939 41.2241 8.04429 40.6368 7.24342C40.0495 6.46035 39.747 5.58829 39.747 4.66284C39.747 3.91536 39.9072 3.25687 40.2275 2.68736C40.5479 2.11786 40.975 1.61954 41.5089 1.228C42.0428 0.818667 42.6479 0.516116 43.3598 0.302551C44.0717 0.0889855 44.8192 0 45.6022 0C45.9938 0 46.4031 0.0177971 46.7946 0.0711884C47.204 0.12458 47.5777 0.195768 47.9515 0.266957C48.3074 0.355942 48.6455 0.444928 48.9659 0.55171C49.2862 0.658493 49.5354 0.765276 49.7134 0.872058C49.9625 1.01444 50.1405 1.15681 50.2473 1.31699C50.3541 1.45936 50.4074 1.65513 50.4074 1.90429V2.74075C50.4074 3.11449 50.2651 3.31026 49.9981 3.31026C49.8557 3.31026 49.6244 3.23907 49.3218 3.0967C48.3074 2.63397 47.1684 2.40261 45.9048 2.40261C44.8904 2.40261 44.0895 2.56278 43.5378 2.90093C42.9861 3.23907 42.7013 3.75519 42.7013 4.48487C42.7013 4.98319 42.8793 5.41032 43.2352 5.74847C43.5912 6.08661 44.2497 6.42476 45.1929 6.72731L47.7201 7.52818C49.0015 7.93751 49.9269 8.50702 50.4786 9.2367C51.0303 9.96638 51.2973 10.8028 51.2973 11.7283C51.2973 12.4936 51.1371 13.1877 50.8346 13.7928C50.5142 14.3979 50.0871 14.9318 49.5354 15.3589C48.9837 15.8038 48.3252 16.1242 47.5599 16.3555C46.759 16.6047 45.9226 16.7293 45.0149 16.7293Z" fill="black"/>
<path fill-rule="evenodd" clip-rule="evenodd" d="M48.3782 25.3783C42.523 29.703 34.016 31.9988 26.7014 31.9988C16.4502 31.9988 7.21353 28.208 0.23706 21.9078C-0.31465 21.4095 0.183669 20.7332 0.842162 21.1247C8.38814 25.5028 17.696 28.1546 27.3243 28.1546C33.8202 28.1546 40.9568 26.802 47.524 24.0257C48.5028 23.5807 49.3393 24.6664 48.3782 25.3783Z" fill="black"/>
<path fill-rule="evenodd" clip-rule="evenodd" d="M50.8153 22.6024C50.0678 21.6413 45.8677 22.1396 43.9634 22.371C43.3939 22.4422 43.3049 21.9439 43.821 21.5701C47.1668 19.2209 52.6662 19.8972 53.3069 20.6803C53.9475 21.4811 53.1289 26.9805 49.9966 29.6144C49.5161 30.0238 49.0533 29.8102 49.2669 29.2763C49.9788 27.5144 51.5627 23.5456 50.8153 22.6024Z" fill="black"/>
</svg>
