<svg width="80" height="24" viewBox="0 0 80 24" fill="none" xmlns="http://www.w3.org/2000/svg">
<path d="M13.7657 21.8166C17.5886 21.1413 20.7461 20.5825 20.7824 20.5748L20.8483 20.5608L17.2391 16.2678C15.254 13.9066 13.6299 11.9656 13.6299 11.9544C13.6299 11.9332 17.3567 1.67038 17.3777 1.63387C17.3847 1.62166 19.9209 6.00035 23.5256 12.2481C26.9004 18.0973 29.6827 22.9201 29.7086 22.9653L29.7556 23.0474L18.2853 23.046L6.81495 23.0445L13.7657 21.8166ZM57.7531 20.7784C56.0071 20.6664 54.9916 19.6722 54.7225 17.8113C54.6509 17.3162 54.6507 17.3034 54.6433 14.0896L54.6362 10.9791H55.409H56.1817L56.1878 13.9877C56.1933 16.6993 56.1967 17.0172 56.2227 17.208C56.3279 17.9821 56.5373 18.5027 56.8939 18.8764C57.1793 19.1754 57.5134 19.3505 57.9759 19.4434C58.1941 19.4873 58.8148 19.4874 59.0137 19.4436C59.4826 19.3404 59.8584 19.1364 60.1899 18.805C60.5677 18.4273 60.8473 17.8914 60.9825 17.2854L61.0281 17.0812L61.0332 14.0472L61.0382 11.0131H61.8272H62.6161V15.7827V20.5523H61.8353H61.0545V19.7956C61.0545 19.2814 61.0489 19.0407 61.0369 19.0447C61.0273 19.0479 60.9872 19.1093 60.9478 19.181C60.6787 19.6717 60.2305 20.1205 59.7392 20.3908C59.1504 20.7149 58.5599 20.8301 57.7531 20.7784ZM75.4753 20.7707C74.8589 20.7243 74.2099 20.5124 73.6795 20.1843C72.5615 19.4928 71.9 18.3529 71.7063 16.7841C71.6393 16.2413 71.6313 15.5121 71.6872 15.0509C71.8122 14.0202 72.2172 13.0084 72.7939 12.2861C72.9417 12.1009 73.2771 11.7655 73.4623 11.6177C73.9623 11.2185 74.5472 10.9393 75.1682 10.8035C75.53 10.7243 76.1671 10.6871 76.5515 10.7228C77.5172 10.8123 78.4022 11.2669 79.0037 11.9825C79.6149 12.7096 79.9508 13.7255 79.9937 14.9764C80.0004 15.1725 80.002 15.5162 79.9973 15.7403L79.9887 16.1476L76.6067 16.1519L73.2247 16.1562V16.3071C73.2247 16.7666 73.3364 17.2898 73.5295 17.7351C73.696 18.119 73.9826 18.5383 74.2173 18.7411C74.6986 19.1571 75.2875 19.4061 75.932 19.4661C76.1709 19.4883 76.7799 19.4649 77.0522 19.423C77.8292 19.3037 78.5678 18.9989 79.1643 18.5517C79.2345 18.4991 79.3017 18.4499 79.3136 18.4425C79.331 18.4315 79.3351 18.569 79.3347 19.1469L79.3341 19.8649L79.1743 19.9637C78.4995 20.381 77.7265 20.649 76.908 20.7493C76.6637 20.7793 75.7674 20.7926 75.4753 20.7707ZM78.4186 14.7151C78.4186 13.9455 78.0943 13.0906 77.6354 12.6504C77.3078 12.3362 76.9119 12.1442 76.4412 12.0713C76.2185 12.0368 75.7492 12.0501 75.5144 12.0976C75.0181 12.1978 74.6075 12.416 74.2495 12.7698C73.8726 13.1422 73.5901 13.5945 73.4124 14.1098C73.3485 14.2951 73.2738 14.5993 73.2506 14.7685L73.2395 14.8491H75.8291H78.4186V14.7151ZM32.5422 20.5311C32.5462 20.5194 33.6946 17.5024 35.0943 13.8265L37.6392 7.14317L38.4569 7.14312L39.2746 7.14307L39.3425 7.31705C39.5498 7.84872 44.4372 20.5378 44.4372 20.5444C44.4372 20.5487 44.0458 20.5522 43.5673 20.5522L42.6974 20.552L41.993 18.6766L41.2886 16.8011L38.4523 16.8011L35.616 16.8011L35.5914 16.8647C35.5778 16.8997 35.2769 17.7436 34.9226 18.74L34.2784 20.5517L33.4067 20.552C32.7167 20.5522 32.5365 20.5479 32.5422 20.5311ZM40.7709 15.3699C40.7709 15.3669 40.2969 14.0818 39.7175 12.5141C38.6335 9.58112 38.5729 9.40465 38.4873 8.93379C38.4471 8.71299 38.4268 8.70685 38.403 8.90833C38.3859 9.05234 38.312 9.37458 38.2551 9.55333C38.2268 9.64202 37.7387 10.9817 37.1704 12.5304C36.6021 14.0791 36.1371 15.3528 36.1371 15.3608C36.1371 15.3688 37.1797 15.3753 38.454 15.3753C39.7283 15.3753 40.7709 15.3729 40.7709 15.3699ZM44.9634 20.308V20.0638L47.7892 16.1792L50.615 12.2946L48.0565 12.2861L45.4981 12.2776L45.4936 11.6284L45.4892 10.9791H49.1897H52.8901V11.1984V11.4177L50.064 15.3235C48.5096 17.4717 47.2379 19.2329 47.2379 19.2373C47.2379 19.2417 48.4944 19.2453 50.0301 19.2453H52.8222V19.8988V20.5523H48.8928H44.9634V20.308ZM65.6996 20.541C65.6934 20.5348 65.6883 18.3808 65.6883 15.7544V10.9791H66.4606H67.2329V11.9636C67.2329 12.5051 67.2395 12.9481 67.2476 12.9481C67.2556 12.9481 67.2932 12.8594 67.3311 12.7511C67.5047 12.2547 67.8059 11.7909 68.1938 11.4222C68.5433 11.0902 68.9427 10.8916 69.4141 10.8156C69.5465 10.7942 69.6585 10.7901 69.9233 10.797C70.2558 10.8057 70.4297 10.83 70.6319 10.8961L70.6956 10.9169V11.7186V12.5202L70.5131 12.4289C70.1908 12.2675 69.8728 12.2037 69.4904 12.2236C69.2416 12.2365 69.0783 12.2684 68.8794 12.3431C68.4701 12.4967 68.1381 12.7678 67.9061 13.1379C67.5703 13.6737 67.3308 14.3624 67.2602 14.9953C67.2475 15.1089 67.24 16.034 67.237 17.8577L67.2326 20.5523H66.4718C66.0533 20.5523 65.7059 20.5472 65.6996 20.541ZM0 20.5075C0 20.5014 1.70064 17.5492 3.7792 13.9471L7.55839 7.39766L11.9626 3.70163C14.3849 1.66882 16.3733 0.00312133 16.3813 8.35009e-05C16.3893 -0.00295373 16.3574 0.0772467 16.3105 0.178308C16.2636 0.279368 14.1115 4.89531 11.5281 10.436L6.8311 20.5099L3.41555 20.5141C1.537 20.5165 0 20.5135 0 20.5075Z" fill="black"/>
</svg>
