<svg width="80" height="60" viewBox="0 0 80 60" fill="none" xmlns="http://www.w3.org/2000/svg">
<path d="M78.0558 54.5534L77.4571 54.7229C77.4194 54.6231 77.3639 54.5261 77.2905 54.432C77.2189 54.3359 77.121 54.2569 76.9967 54.1947C76.8725 54.1326 76.7134 54.1015 76.5194 54.1015C76.254 54.1015 76.0327 54.1627 75.8558 54.2851C75.6806 54.4056 75.5931 54.5591 75.5931 54.7455C75.5931 54.9111 75.6533 55.042 75.7738 55.138C75.8943 55.234 76.0826 55.3141 76.3387 55.3781L76.9826 55.5362C77.3705 55.6304 77.6595 55.7744 77.8497 55.9683C78.0398 56.1604 78.1349 56.408 78.1349 56.7111C78.1349 56.9596 78.0634 57.1818 77.9203 57.3776C77.779 57.5734 77.5813 57.7278 77.3272 57.8408C77.073 57.9538 76.7774 58.0103 76.4404 58.0103C75.9979 58.0103 75.6317 57.9142 75.3417 57.7222C75.0518 57.5301 74.8682 57.2496 74.791 56.8806L75.4236 56.7224C75.4839 56.9559 75.5978 57.131 75.7654 57.2477C75.9348 57.3645 76.1561 57.4228 76.4291 57.4228C76.7397 57.4228 76.9864 57.3569 77.169 57.2251C77.3535 57.0914 77.4458 56.9314 77.4458 56.745C77.4458 56.5944 77.3931 56.4682 77.2876 56.3666C77.1822 56.263 77.0203 56.1858 76.8019 56.135L76.0789 55.9655C75.6816 55.8714 75.3898 55.7255 75.2034 55.5278C75.0188 55.3282 74.9266 55.0787 74.9266 54.7793C74.9266 54.5346 74.9953 54.3181 75.1327 54.1298C75.2721 53.9415 75.4613 53.7937 75.7004 53.6864C75.9414 53.5791 76.2144 53.5254 76.5194 53.5254C76.9487 53.5254 77.2857 53.6195 77.5305 53.8078C77.7772 53.9961 77.9523 54.2446 78.0558 54.5534Z" fill="black"/>
<path d="M72.0254 57.9175V53.5795H72.6693V54.2347H72.7145C72.7936 54.0201 72.9367 53.8459 73.1438 53.7122C73.3509 53.5786 73.5844 53.5117 73.8442 53.5117C73.8931 53.5117 73.9543 53.5127 74.0278 53.5145C74.1012 53.5164 74.1567 53.5193 74.1944 53.523V54.2008C74.1718 54.1952 74.12 54.1867 74.0391 54.1754C73.96 54.1622 73.8762 54.1556 73.7877 54.1556C73.5768 54.1556 73.3886 54.1999 73.2229 54.2884C73.0591 54.375 72.9291 54.4955 72.8331 54.6499C72.739 54.8024 72.6919 54.9765 72.6919 55.1724V57.9175H72.0254Z" fill="black"/>
<path d="M69.2136 58.0103C68.7956 58.0103 68.435 57.918 68.1319 57.7335C67.8306 57.5471 67.5981 57.2873 67.4343 56.954C67.2724 56.6189 67.1914 56.2291 67.1914 55.7848C67.1914 55.3404 67.2724 54.9488 67.4343 54.6099C67.5981 54.2691 67.8259 54.0036 68.1178 53.8135C68.4115 53.6214 68.7541 53.5254 69.1458 53.5254C69.3717 53.5254 69.5948 53.563 69.8151 53.6384C70.0354 53.7137 70.2359 53.8361 70.4167 54.0055C70.5974 54.1731 70.7415 54.3953 70.8488 54.672C70.9561 54.9488 71.0098 55.2896 71.0098 55.6944V55.9768H67.6659V55.4007H70.3319C70.3319 55.1559 70.283 54.9375 70.1851 54.7455C70.0891 54.5534 69.9516 54.4018 69.7727 54.2908C69.5958 54.1797 69.3868 54.1241 69.1458 54.1241C68.8803 54.1241 68.6506 54.19 68.4567 54.3218C68.2646 54.4517 68.1168 54.6212 68.0133 54.8302C67.9097 55.0392 67.8579 55.2632 67.8579 55.5023V55.8864C67.8579 56.2141 67.9144 56.4918 68.0274 56.7196C68.1422 56.9455 68.3013 57.1178 68.5047 57.2364C68.708 57.3532 68.9443 57.4115 69.2136 57.4115C69.3887 57.4115 69.5468 57.387 69.688 57.3381C69.8311 57.2873 69.9544 57.2119 70.058 57.1122C70.1616 57.0105 70.2416 56.8843 70.2981 56.7337L70.942 56.9145C70.8742 57.1329 70.7603 57.3249 70.6002 57.4906C70.4402 57.6544 70.2425 57.7824 70.0072 57.8747C69.7718 57.9651 69.5073 58.0103 69.2136 58.0103Z" fill="black"/>
<path d="M63.4107 55.3103V57.9199H62.7441V53.5819H63.3881V54.2597H63.4445C63.5462 54.0394 63.7006 53.8624 63.9077 53.7287C64.1148 53.5932 64.3822 53.5254 64.7098 53.5254C65.0035 53.5254 65.2605 53.5856 65.4808 53.7061C65.7011 53.8248 65.8724 54.0055 65.9948 54.2484C66.1172 54.4894 66.1784 54.7944 66.1784 55.1634V57.9199H65.5119V55.2086C65.5119 54.8678 65.4234 54.6024 65.2464 54.4122C65.0694 54.2201 64.8265 54.1241 64.5178 54.1241C64.305 54.1241 64.1148 54.1703 63.9473 54.2625C63.7816 54.3548 63.6507 54.4894 63.5547 54.6664C63.4587 54.8434 63.4107 55.058 63.4107 55.3103Z" fill="black"/>
<path d="M61.7403 53.5803V54.1452H59.4922V53.5803H61.7403ZM60.1474 52.541H60.8139V56.6757C60.8139 56.864 60.8412 57.0052 60.8958 57.0993C60.9523 57.1916 61.0239 57.2537 61.1105 57.2857C61.199 57.3158 61.2922 57.3309 61.3901 57.3309C61.4635 57.3309 61.5237 57.3271 61.5708 57.3196C61.6179 57.3102 61.6555 57.3027 61.6838 57.297L61.8193 57.8957C61.7742 57.9127 61.7111 57.9296 61.6301 57.9466C61.5492 57.9654 61.4466 57.9748 61.3223 57.9748C61.134 57.9748 60.9495 57.9343 60.7687 57.8534C60.5899 57.7724 60.4411 57.6491 60.3225 57.4834C60.2058 57.3177 60.1474 57.1087 60.1474 56.8564V52.541Z" fill="black"/>
<path d="M56.623 57.9175V53.5795H57.267V54.2347H57.3122C57.3912 54.0201 57.5343 53.8459 57.7414 53.7122C57.9485 53.5786 58.182 53.5117 58.4418 53.5117C58.4908 53.5117 58.552 53.5127 58.6254 53.5145C58.6988 53.5164 58.7544 53.5193 58.792 53.523V54.2008C58.7695 54.1952 58.7177 54.1867 58.6367 54.1754C58.5576 54.1622 58.4739 54.1556 58.3854 54.1556C58.1745 54.1556 57.9862 54.1999 57.8205 54.2884C57.6567 54.375 57.5268 54.4955 57.4308 54.6499C57.3366 54.8024 57.2896 54.9765 57.2896 55.1724V57.9175H56.623Z" fill="black"/>
<path d="M53.4194 58.0216C53.1445 58.0216 52.895 57.9698 52.6709 57.8662C52.4469 57.7608 52.2689 57.6092 52.1371 57.4115C52.0054 57.2119 51.9395 56.9709 51.9395 56.6885C51.9395 56.44 51.9884 56.2385 52.0863 56.0841C52.1842 55.9279 52.3151 55.8055 52.4789 55.717C52.6427 55.6285 52.8234 55.5626 53.0211 55.5193C53.2207 55.4741 53.4212 55.4383 53.6227 55.412C53.8863 55.3781 54.1 55.3527 54.2638 55.3357C54.4295 55.3169 54.55 55.2858 54.6253 55.2425C54.7025 55.1992 54.7411 55.1239 54.7411 55.0166V54.994C54.7411 54.7153 54.6648 54.4988 54.5123 54.3444C54.3617 54.19 54.1329 54.1128 53.826 54.1128C53.5078 54.1128 53.2584 54.1825 53.0776 54.3218C52.8969 54.4611 52.7698 54.6099 52.6963 54.768L52.0637 54.5421C52.1767 54.2785 52.3273 54.0733 52.5156 53.9264C52.7058 53.7777 52.9129 53.6741 53.1369 53.6158C53.3629 53.5555 53.585 53.5254 53.8034 53.5254C53.9428 53.5254 54.1028 53.5423 54.2836 53.5762C54.4662 53.6082 54.6422 53.6751 54.8117 53.7767C54.983 53.8784 55.1252 54.0319 55.2381 54.2371C55.3511 54.4423 55.4076 54.7172 55.4076 55.0618V57.9199H54.7411V57.3324H54.7072C54.662 57.4266 54.5867 57.5273 54.4813 57.6346C54.3758 57.742 54.2355 57.8333 54.0604 57.9086C53.8853 57.9839 53.6716 58.0216 53.4194 58.0216ZM53.521 57.4228C53.7846 57.4228 54.0068 57.371 54.1875 57.2675C54.3702 57.1639 54.5076 57.0303 54.5999 56.8664C54.694 56.7026 54.7411 56.5304 54.7411 56.3496V55.7396C54.7128 55.7735 54.6507 55.8045 54.5547 55.8328C54.4605 55.8591 54.3513 55.8827 54.2271 55.9034C54.1047 55.9222 53.9851 55.9392 53.8684 55.9542C53.7535 55.9674 53.6603 55.9787 53.5888 55.9881C53.4156 56.0107 53.2537 56.0474 53.103 56.0983C52.9543 56.1472 52.8338 56.2216 52.7415 56.3214C52.6512 56.4193 52.606 56.553 52.606 56.7224C52.606 56.954 52.6916 57.1291 52.863 57.2477C53.0362 57.3645 53.2555 57.4228 53.521 57.4228Z" fill="black"/>
<path d="M47.1836 57.9188V52.1348H49.138C49.5917 52.1348 49.9626 52.2167 50.2507 52.3805C50.5407 52.5424 50.7553 52.7617 50.8946 53.0385C51.0339 53.3153 51.1036 53.6241 51.1036 53.9649C51.1036 54.3057 51.0339 54.6154 50.8946 54.894C50.7572 55.1727 50.5444 55.3949 50.2563 55.5605C49.9683 55.7244 49.5992 55.8063 49.1493 55.8063H47.7484V55.1849H49.1267C49.4373 55.1849 49.6868 55.1313 49.8751 55.0239C50.0634 54.9166 50.1999 54.7716 50.2846 54.589C50.3712 54.4045 50.4145 54.1964 50.4145 53.9649C50.4145 53.7333 50.3712 53.5262 50.2846 53.3435C50.1999 53.1609 50.0624 53.0178 49.8723 52.9143C49.6821 52.8088 49.4298 52.7561 49.1154 52.7561H47.884V57.9188H47.1836Z" fill="black"/>
<path d="M40.86 59.5448C40.747 59.5448 40.6463 59.5354 40.5578 59.5166C40.4693 59.4997 40.4081 59.4827 40.3742 59.4658L40.5437 58.8783C40.7056 58.9197 40.8487 58.9348 40.973 58.9235C41.0972 58.9122 41.2074 58.8567 41.3034 58.7569C41.4013 58.659 41.4907 58.4999 41.5717 58.2796L41.696 57.9407L40.0918 53.5801H40.8148L42.0123 57.0369H42.0575L43.2549 53.5801H43.9779L42.1365 58.5507C42.0537 58.7748 41.9511 58.9602 41.8287 59.1071C41.7063 59.2558 41.5642 59.366 41.4022 59.4375C41.2422 59.5091 41.0614 59.5448 40.86 59.5448Z" fill="black"/>
<path d="M37.3352 59.637C37.0133 59.637 36.7365 59.5956 36.5049 59.5127C36.2733 59.4318 36.0803 59.3245 35.9259 59.1908C35.7734 59.059 35.652 58.9178 35.5616 58.7671L36.0926 58.3944C36.1528 58.4734 36.2291 58.5638 36.3213 58.6655C36.4136 58.769 36.5397 58.8585 36.6998 58.9338C36.8617 59.011 37.0735 59.0496 37.3352 59.0496C37.6854 59.0496 37.9744 58.9648 38.2023 58.7954C38.4301 58.6259 38.544 58.3605 38.544 57.999V57.1178H38.4875C38.4386 57.1969 38.3689 57.2948 38.2785 57.4115C38.19 57.5264 38.062 57.629 37.8944 57.7194C37.7287 57.8079 37.5047 57.8521 37.2223 57.8521C36.872 57.8521 36.5576 57.7693 36.279 57.6036C36.0022 57.4379 35.7828 57.1969 35.6209 56.8806C35.4609 56.5643 35.3809 56.1802 35.3809 55.7283C35.3809 55.2839 35.459 54.897 35.6153 54.5675C35.7715 54.2362 35.989 53.9801 36.2677 53.7993C36.5463 53.6167 36.8683 53.5254 37.2335 53.5254C37.516 53.5254 37.74 53.5725 37.9057 53.6666C38.0733 53.7589 38.2013 53.8643 38.2898 53.9829C38.3802 54.0996 38.4498 54.1957 38.4988 54.271H38.5666V53.5819H39.2105V58.0441C39.2105 58.4169 39.1258 58.7201 38.9563 58.9535C38.7888 59.1889 38.5628 59.3612 38.2785 59.4704C37.9961 59.5815 37.6817 59.637 37.3352 59.637ZM37.3126 57.2534C37.58 57.2534 37.8059 57.1922 37.9904 57.0698C38.175 56.9474 38.3152 56.7714 38.4112 56.5417C38.5073 56.312 38.5553 56.0371 38.5553 55.717C38.5553 55.4044 38.5082 55.1286 38.4141 54.8895C38.3199 54.6504 38.1806 54.463 37.9961 54.3275C37.8116 54.1919 37.5838 54.1241 37.3126 54.1241C37.0302 54.1241 36.7949 54.1957 36.6066 54.3388C36.4202 54.4819 36.2799 54.6739 36.1858 54.9149C36.0935 55.1559 36.0474 55.4233 36.0474 55.717C36.0474 56.0182 36.0944 56.2847 36.1886 56.5162C36.2846 56.7459 36.4258 56.9267 36.6122 57.0585C36.8005 57.1884 37.034 57.2534 37.3126 57.2534Z" fill="black"/>
<path d="M32.6004 58.0103C32.2088 58.0103 31.8652 57.9171 31.5696 57.7307C31.2759 57.5443 31.0462 57.2835 30.8805 56.9483C30.7167 56.6132 30.6348 56.2216 30.6348 55.7735C30.6348 55.3216 30.7167 54.9271 30.8805 54.5901C31.0462 54.2531 31.2759 53.9914 31.5696 53.805C31.8652 53.6186 32.2088 53.5254 32.6004 53.5254C32.9921 53.5254 33.3347 53.6186 33.6284 53.805C33.924 53.9914 34.1537 54.2531 34.3176 54.5901C34.4832 54.9271 34.5661 55.3216 34.5661 55.7735C34.5661 56.2216 34.4832 56.6132 34.3176 56.9483C34.1537 57.2835 33.924 57.5443 33.6284 57.7307C33.3347 57.9171 32.9921 58.0103 32.6004 58.0103ZM32.6004 57.4115C32.8979 57.4115 33.1427 57.3353 33.3347 57.1828C33.5268 57.0303 33.6689 56.8297 33.7612 56.5812C33.8534 56.3327 33.8996 56.0634 33.8996 55.7735C33.8996 55.4835 33.8534 55.2133 33.7612 54.9629C33.6689 54.7125 33.5268 54.5101 33.3347 54.3557C33.1427 54.2013 32.8979 54.1241 32.6004 54.1241C32.3029 54.1241 32.0582 54.2013 31.8661 54.3557C31.6741 54.5101 31.5319 54.7125 31.4397 54.9629C31.3474 55.2133 31.3013 55.4835 31.3013 55.7735C31.3013 56.0634 31.3474 56.3327 31.4397 56.5812C31.5319 56.8297 31.6741 57.0303 31.8661 57.1828C32.0582 57.3353 32.3029 57.4115 32.6004 57.4115Z" fill="black"/>
<path d="M29.6177 52.1348V57.9188H28.9512V52.1348H29.6177Z" fill="black"/>
<path d="M25.9676 58.0103C25.576 58.0103 25.2324 57.9171 24.9368 57.7307C24.6431 57.5443 24.4133 57.2835 24.2477 56.9483C24.0839 56.6132 24.002 56.2216 24.002 55.7735C24.002 55.3216 24.0839 54.9271 24.2477 54.5901C24.4133 54.2531 24.6431 53.9914 24.9368 53.805C25.2324 53.6186 25.576 53.5254 25.9676 53.5254C26.3592 53.5254 26.7019 53.6186 26.9956 53.805C27.2912 53.9914 27.5209 54.2531 27.6847 54.5901C27.8504 54.9271 27.9333 55.3216 27.9333 55.7735C27.9333 56.2216 27.8504 56.6132 27.6847 56.9483C27.5209 57.2835 27.2912 57.5443 26.9956 57.7307C26.7019 57.9171 26.3592 58.0103 25.9676 58.0103ZM25.9676 57.4115C26.2651 57.4115 26.5099 57.3353 26.7019 57.1828C26.894 57.0303 27.0361 56.8297 27.1284 56.5812C27.2206 56.3327 27.2668 56.0634 27.2668 55.7735C27.2668 55.4835 27.2206 55.2133 27.1284 54.9629C27.0361 54.7125 26.894 54.5101 26.7019 54.3557C26.5099 54.2013 26.2651 54.1241 25.9676 54.1241C25.6701 54.1241 25.4254 54.2013 25.2333 54.3557C25.0413 54.5101 24.8991 54.7125 24.8069 54.9629C24.7146 55.2133 24.6685 55.4835 24.6685 55.7735C24.6685 56.0634 24.7146 56.3327 24.8069 56.5812C24.8991 56.8297 25.0413 57.0303 25.2333 57.1828C25.4254 57.3353 25.6701 57.4115 25.9676 57.4115Z" fill="black"/>
<path d="M20.2193 55.3103V57.9199H19.5527V53.5819H20.1967V54.2597H20.2531C20.3548 54.0394 20.5092 53.8624 20.7163 53.7287C20.9234 53.5932 21.1908 53.5254 21.5184 53.5254C21.8121 53.5254 22.0691 53.5856 22.2894 53.7061C22.5097 53.8248 22.681 54.0055 22.8034 54.2484C22.9258 54.4894 22.987 54.7944 22.987 55.1634V57.9199H22.3205V55.2086C22.3205 54.8678 22.232 54.6024 22.055 54.4122C21.878 54.2201 21.6351 54.1241 21.3263 54.1241C21.1136 54.1241 20.9234 54.1703 20.7559 54.2625C20.5902 54.3548 20.4593 54.4894 20.3633 54.6664C20.2673 54.8434 20.2193 55.058 20.2193 55.3103Z" fill="black"/>
<path d="M15.52 55.3092V57.9188H14.8535V52.1348H15.52V54.2586H15.5765C15.6782 54.0345 15.8307 53.8566 16.034 53.7248C16.2393 53.5911 16.5123 53.5243 16.8531 53.5243C17.1487 53.5243 17.4076 53.5836 17.6297 53.7022C17.8519 53.8189 18.0242 53.9988 18.1466 54.2416C18.2708 54.4826 18.333 54.7895 18.333 55.1623V57.9188H17.6664V55.2075C17.6664 54.863 17.577 54.5965 17.3981 54.4083C17.2212 54.2181 16.9754 54.123 16.661 54.123C16.4426 54.123 16.2468 54.1691 16.0736 54.2614C15.9022 54.3537 15.7667 54.4883 15.6669 54.6653C15.569 54.8423 15.52 55.0569 15.52 55.3092Z" fill="black"/>
<path d="M12.1746 58.0103C11.768 58.0103 11.4178 57.9142 11.124 57.7222C10.8303 57.5301 10.6044 57.2656 10.4462 56.9286C10.2881 56.5916 10.209 56.2065 10.209 55.7735C10.209 55.3329 10.2899 54.9441 10.4519 54.6071C10.6157 54.2682 10.8435 54.0036 11.1353 53.8135C11.429 53.6214 11.7717 53.5254 12.1633 53.5254C12.4684 53.5254 12.7433 53.5819 12.988 53.6948C13.2328 53.8078 13.4333 53.966 13.5896 54.1693C13.7459 54.3727 13.8428 54.6099 13.8805 54.881H13.214C13.1631 54.6833 13.0502 54.5082 12.8751 54.3557C12.7018 54.2013 12.4684 54.1241 12.1746 54.1241C11.9148 54.1241 11.687 54.1919 11.4912 54.3275C11.2973 54.4611 11.1457 54.6504 11.0365 54.8951C10.9292 55.138 10.8755 55.4233 10.8755 55.7509C10.8755 56.086 10.9282 56.3779 11.0337 56.6264C11.141 56.8749 11.2916 57.0679 11.4855 57.2054C11.6813 57.3428 11.911 57.4115 12.1746 57.4115C12.3479 57.4115 12.5051 57.3814 12.6463 57.3211C12.7875 57.2609 12.9071 57.1743 13.005 57.0613C13.1029 56.9483 13.1725 56.8128 13.214 56.6546H13.8805C13.8428 56.9107 13.7496 57.1413 13.6009 57.3466C13.454 57.5499 13.2591 57.7118 13.0163 57.8323C12.7753 57.9509 12.4947 58.0103 12.1746 58.0103Z" fill="black"/>
<path d="M7.60222 58.0103C7.18424 58.0103 6.82368 57.918 6.52054 57.7335C6.21929 57.5471 5.98677 57.2873 5.82296 56.954C5.66104 56.6189 5.58008 56.2291 5.58008 55.7848C5.58008 55.3404 5.66104 54.9488 5.82296 54.6099C5.98677 54.2691 6.21459 54.0036 6.50642 53.8135C6.80014 53.6214 7.14281 53.5254 7.53444 53.5254C7.76038 53.5254 7.98349 53.563 8.20378 53.6384C8.42407 53.7137 8.62459 53.8361 8.80534 54.0055C8.98609 54.1731 9.13013 54.3953 9.23745 54.672C9.34477 54.9488 9.39843 55.2896 9.39843 55.6944V55.9768H6.05455V55.4007H8.72061C8.72061 55.1559 8.67166 54.9375 8.57375 54.7455C8.47773 54.5534 8.34029 54.4018 8.16142 54.2908C7.98443 54.1797 7.77544 54.1241 7.53444 54.1241C7.26896 54.1241 7.03926 54.19 6.84533 54.3218C6.65328 54.4517 6.50548 54.6212 6.40193 54.8302C6.29837 55.0392 6.24659 55.2632 6.24659 55.5023V55.8864C6.24659 56.2141 6.30308 56.4918 6.41605 56.7196C6.5309 56.9455 6.69 57.1178 6.89334 57.2364C7.09669 57.3532 7.33298 57.4115 7.60222 57.4115C7.77732 57.4115 7.93548 57.387 8.07669 57.3381C8.21979 57.2873 8.34311 57.2119 8.44666 57.1122C8.55022 57.0105 8.63024 56.8843 8.68672 56.7337L9.33065 56.9145C9.26287 57.1329 9.14895 57.3249 8.98892 57.4906C8.82888 57.6544 8.63118 57.7824 8.39583 57.8747C8.16048 57.9651 7.89594 58.0103 7.60222 58.0103Z" fill="black"/>
<path d="M1.08398 52.7561V52.1348H5.42199V52.7561H3.60319V57.9188H2.90278V52.7561H1.08398Z" fill="black"/>
<path d="M21.9697 41.7126V37.6466C21.9697 37.54 21.903 37.4733 21.7964 37.4733H20.4633V35.8869H21.7964C21.903 35.8869 21.9697 35.8203 21.9697 35.7136V33.1674H23.8627V35.7136C23.8627 35.8203 23.9293 35.8869 24.036 35.8869H25.9023V37.4733H24.036C23.9293 37.4733 23.8627 37.54 23.8627 37.6466V41.246C23.8627 42.9391 24.4626 43.0857 25.2358 43.0857C25.5157 43.0857 25.9423 43.0457 26.1823 43.0191V44.6721C25.8624 44.7121 25.3424 44.7788 24.7425 44.7788C24.0093 44.7388 21.9697 44.7388 21.9697 41.7126ZM73.4944 42.6991L75.0408 41.8859C75.3874 42.6991 76.054 43.2324 76.8272 43.2324C77.4271 43.2324 78.0937 42.9791 78.0937 42.2459C78.0937 41.7526 77.7737 41.4727 77.0405 41.2194L75.9873 40.8728C74.5076 40.4195 73.7744 39.5663 73.7744 38.3665C73.7744 36.8468 75.0408 35.7136 76.7605 35.7136C78.1336 35.7136 79.2934 36.4602 79.8534 37.62L78.3069 38.4732C77.9603 37.7266 77.4004 37.3133 76.7339 37.3133C76.0673 37.3133 75.6141 37.66 75.6141 38.1932C75.6141 38.6465 75.9607 39.0064 76.6672 39.2197L77.7204 39.5663C79.2668 40.0596 80 40.9127 80 42.0726C80 43.9122 78.4269 44.8588 76.8405 44.8588C75.2541 44.8188 73.9877 44.0056 73.4944 42.6991ZM67.6687 41.1127C67.6287 41.1527 67.6021 41.1794 67.6021 41.2194V44.6055H65.6691V32.0742H67.6021V38.9264C67.6021 38.9931 67.6421 39.0731 67.7087 39.0731C67.7754 39.113 67.8554 39.073 67.882 39.0331L71.0015 35.8603H73.3478L69.7084 39.553C69.6417 39.6196 69.6417 39.6996 69.7084 39.7663L73.6677 44.6055H71.3214L68.2686 40.7928C68.2286 40.7528 68.202 40.7261 68.162 40.7261C68.122 40.7261 68.0953 40.7261 68.0553 40.7661L67.6687 41.1127ZM64.7225 37.0467L63.4961 38.2065C62.7895 37.6733 62.0963 37.4333 61.3231 37.4333C59.71 37.4333 58.5102 38.6331 58.5102 40.2595C58.5102 41.8859 59.71 43.0857 61.3231 43.0857C62.0297 43.0857 62.7629 42.8324 63.5361 42.3125L64.6292 43.4723C63.0562 44.6321 62.203 44.8454 61.1231 44.8454C59.83 44.8454 58.6702 44.3922 57.8304 43.539C57.0172 42.7258 56.5639 41.526 56.5639 40.2595C56.5639 37.6066 58.4969 35.6736 61.1631 35.6736C62.0163 35.6736 63.3228 35.8069 64.7225 37.0467ZM55.6707 33.274C55.6707 33.9139 55.1508 34.4338 54.5109 34.4338C53.8843 34.4338 53.3511 33.9006 53.3511 33.274C53.3511 32.6341 53.871 32.1142 54.5109 32.1142C55.1375 32.1009 55.6707 32.6341 55.6707 33.274ZM55.4841 44.6055H53.5511V35.8869H55.4841V44.6055ZM49.3518 40.7928V44.6455H47.4188V35.9269H49.3118V36.9801C49.3118 37.0467 49.3518 37.1267 49.4184 37.1534C49.4851 37.1934 49.5651 37.1534 49.5917 37.0867C50.085 36.2735 50.9915 35.7403 51.978 35.7403C52.1246 35.7403 52.218 35.7403 52.2979 35.7803V37.7533C52.1913 37.7133 52.018 37.7133 51.8447 37.7133C50.2983 37.6866 49.3518 38.8864 49.3518 40.7928ZM38.9935 40.2595C38.9935 38.6731 40.1933 37.4333 41.7264 37.4333C43.2728 37.4333 44.4593 38.6731 44.4593 40.2595C44.4593 41.8459 43.2595 43.0857 41.7264 43.0857C40.1933 43.0857 38.9935 41.8459 38.9935 40.2595ZM39.1668 43.579C39.2068 43.579 39.2068 43.579 39.2335 43.579C39.2734 43.579 39.3401 43.619 39.3801 43.6456C40.0467 44.4188 41.0332 44.8454 42.153 44.8454C44.5392 44.8454 46.3656 42.8324 46.3656 40.2595C46.3656 38.9931 45.939 37.8599 45.1391 36.9801C44.3659 36.1269 43.2728 35.6736 42.1263 35.6736C41.0332 35.6736 40.02 36.1269 39.3534 36.9401C39.3134 36.9801 39.2468 37.0067 39.1801 36.9801C39.1135 36.9401 39.0735 36.9134 39.0735 36.8334V32.1009H37.1405V44.6321H39.0735V43.7523C39.0602 43.6456 39.1001 43.619 39.1668 43.579ZM31.1681 43.0857C29.6617 43.0857 28.4353 41.8459 28.4353 40.2595C28.4353 38.6731 29.6351 37.4333 31.1681 37.4333C32.7145 37.4333 33.901 38.6731 33.901 40.2595C33.901 41.8459 32.6745 43.0857 31.1681 43.0857ZM35.7007 44.6055V35.8869H33.8077V36.7668C33.8077 36.8334 33.7677 36.9134 33.701 36.9134C33.6344 36.9534 33.5544 36.9134 33.5277 36.8734C32.9012 36.1002 31.9147 35.6736 30.7549 35.6736C28.3686 35.6736 26.5422 37.6866 26.5422 40.2595C26.5422 42.8324 28.4086 44.8454 30.7549 44.8454C31.848 44.8454 32.8612 44.3922 33.5277 43.579C33.5677 43.5123 33.6344 43.5123 33.701 43.539C33.7677 43.579 33.8077 43.6056 33.8077 43.6856V44.6455H35.7007V44.6055ZM14.9175 43.0857C13.4111 43.0857 12.1846 41.8459 12.1846 40.2595C12.1846 38.6731 13.3844 37.4333 14.9175 37.4333C16.4239 37.4333 17.6504 38.6731 17.6504 40.2595C17.6504 41.8459 16.4239 43.0857 14.9175 43.0857ZM19.4501 44.6055V35.8869H17.5571V36.7668C17.5571 36.8334 17.5171 36.9134 17.4504 36.9134C17.3838 36.9534 17.3038 36.9134 17.2771 36.8734C16.6506 36.1002 15.6641 35.6736 14.5042 35.6736C12.118 35.6736 10.2916 37.6866 10.2916 40.2595C10.2916 42.8324 12.158 44.8454 14.5042 44.8454C15.5974 44.8454 16.6106 44.3922 17.2771 43.579C17.3171 43.5123 17.3838 43.5123 17.4504 43.539C17.5171 43.579 17.5571 43.6056 17.5571 43.6856V44.6455H19.4501V44.6055ZM4.66589 43.0857C3.11948 43.0857 1.93301 41.8459 1.93301 40.2595C1.93301 38.6731 3.13281 37.4333 4.66589 37.4333C6.1723 37.4333 7.39877 38.6731 7.39877 40.2595C7.4121 41.8459 6.1723 43.0857 4.66589 43.0857ZM9.19847 44.6055V32.1009H7.26546V36.7934C7.26546 36.8601 7.22546 36.9401 7.15881 36.9401C7.09215 36.9801 7.01216 36.9401 6.9855 36.9001C6.31895 36.1269 5.33244 35.7003 4.21263 35.7003C1.82636 35.7003 0 37.7133 0 40.2862C0 41.5526 0.426595 42.6858 1.22646 43.5656C1.99967 44.4188 3.09282 44.8721 4.23929 44.8721C5.33244 44.8721 6.34561 44.4188 7.01216 43.6056C7.05216 43.5656 7.11881 43.539 7.18547 43.5656C7.25212 43.6056 7.29212 43.6323 7.29212 43.7123V44.6321H9.18514V44.6055H9.19847Z" fill="black"/>
<path d="M49.6983 10.4516L39.2334 16.3839L28.1153 10.065L27.5954 10.3449V14.9308L39.2468 21.5697L49.7117 15.6374V18.077L39.2468 24.0093L28.1153 17.6904L27.5954 17.9703V18.7435L39.2468 25.3824L50.9381 18.7435V14.1576L50.4182 13.8777L39.2334 20.1966L28.8085 14.2643V11.8647L39.2334 17.757L50.9248 11.1181V6.5989L50.3249 6.27895L39.2334 12.5579L29.3684 6.94551L39.2334 1.3731L47.3787 5.95901L48.1119 5.5724V5.0125L39.2334 0L27.582 6.61223V7.31878L39.2334 13.9577L49.6983 8.02533V10.4516Z" fill="black"/>
</svg>
