<svg width="98" height="32" viewBox="0 0 98 32" fill="none" xmlns="http://www.w3.org/2000/svg">
<path d="M41.5907 16.8399C41.5907 21.4433 37.9888 24.8341 33.5707 24.8341C29.1527 24.8341 25.5508 21.4433 25.5508 16.8399C25.5508 12.2056 29.1527 8.8457 33.5707 8.8457C37.9914 8.8457 41.5907 12.2056 41.5907 16.8399ZM38.0815 16.8399C38.0815 13.9641 35.9935 11.9945 33.5733 11.9945C31.1506 11.9945 29.0651 13.9615 29.0651 16.8399C29.0651 19.6874 31.1532 21.6854 33.5733 21.6854C35.9935 21.6854 38.0815 19.6849 38.0815 16.8399Z" fill="black"/>
<path d="M58.8915 16.8399C58.8915 21.4433 55.2896 24.8341 50.8715 24.8341C46.4535 24.8341 42.8516 21.4433 42.8516 16.8399C42.8516 12.2082 46.4535 8.8457 50.8715 8.8457C55.2921 8.8457 58.8915 12.2056 58.8915 16.8399ZM55.3823 16.8399C55.3823 13.9641 53.2942 11.9945 50.8741 11.9945C48.4514 11.9945 46.3659 13.9615 46.3659 16.8399C46.3659 19.6874 48.4539 21.6854 50.8741 21.6854C53.2942 21.6854 55.3823 19.6849 55.3823 16.8399Z" fill="black"/>
<path d="M75.4765 9.33106V23.6846C75.4765 29.5882 71.9956 32.0006 67.8788 32.0006C64.004 32.0006 61.6714 29.408 60.7934 27.2891L63.8495 26.0172C64.3928 27.3174 65.7264 28.8544 67.8762 28.8544C70.5101 28.8544 72.1449 27.2299 72.1449 24.1686V23.0178H72.0214C71.2361 23.9884 69.7222 24.8355 67.8119 24.8355C63.8135 24.8329 60.1523 21.352 60.1523 16.8721C60.1523 12.3588 63.8135 8.84961 67.8119 8.84961C69.7196 8.84961 71.2335 9.69666 72.0214 10.6364H72.1449V9.33621H75.4791L75.4765 9.33106ZM72.3921 16.8721C72.3921 14.0581 70.5152 11.9984 68.1234 11.9984C65.7007 11.9984 63.6719 14.0555 63.6719 16.8721C63.6719 19.6579 65.7007 21.6867 68.1234 21.6867C70.5152 21.6867 72.3921 19.6579 72.3921 16.8721Z" fill="black"/>
<path d="M80.9711 0.916016V24.3451H77.5469V0.916016H80.9711Z" fill="black"/>
<path d="M94.3182 19.4718L97.0422 21.2895C96.1617 22.5897 94.0428 24.8322 90.3816 24.8322C85.84 24.8322 82.4492 21.3204 82.4492 16.838C82.4492 12.0826 85.8709 8.84375 89.9903 8.84375C94.138 8.84375 96.1694 12.1444 96.8311 13.9286L97.1941 14.8375L86.5068 19.2633C87.3256 20.8672 88.5974 21.686 90.3816 21.686C92.171 21.686 93.4094 20.8055 94.3182 19.4718ZM85.9301 16.5959L93.0747 13.63C92.6808 12.631 91.499 11.9359 90.1087 11.9359C88.3245 11.9359 85.84 13.5115 85.9301 16.5959Z" fill="black"/>
<path d="M12.5925 14.7629V11.3695H24.0212C24.132 11.9617 24.1912 12.6594 24.1912 13.4164C24.1912 15.9601 23.496 19.1089 21.2535 21.3488C19.0728 23.6196 16.2871 24.8297 12.5951 24.8297C5.75428 24.8297 0 19.2582 0 12.4148C0 5.57149 5.75171 0 12.5951 0C16.3798 0 19.0754 1.48556 21.1016 3.42168L18.7072 5.81608C17.2551 4.4541 15.2855 3.39335 12.5899 3.39335C7.59514 3.39335 3.68686 7.42007 3.68686 12.4148C3.68686 17.4096 7.59514 21.4363 12.5899 21.4363C15.8314 21.4363 17.6748 20.1361 18.8591 18.9518C19.8169 17.994 20.4477 16.6243 20.6974 14.7526L12.5925 14.7629Z" fill="black"/>
</svg>
