<svg width="78" height="32" viewBox="0 0 78 32" fill="none" xmlns="http://www.w3.org/2000/svg">
<path d="M0.578125 31.8812V24.8301H3.22428C3.76224 24.8301 4.195 24.9015 4.52055 25.0445C4.84611 25.1874 5.1002 25.4058 5.28482 25.7035C5.46943 25.9993 5.56075 26.311 5.56075 26.6345C5.56075 26.9363 5.47936 27.2202 5.3146 27.4862C5.14983 27.7522 4.90368 27.9666 4.57415 28.1313C5.00095 28.2564 5.32849 28.4688 5.55678 28.7705C5.78507 29.0723 5.9002 29.4276 5.9002 29.8385C5.9002 30.168 5.83073 30.4757 5.69177 30.7596C5.55281 31.0435 5.38011 31.2618 5.17564 31.4167C4.97117 31.5715 4.71311 31.6866 4.40343 31.7661C4.09376 31.8455 3.7146 31.8832 3.26596 31.8832H0.578125V31.8812ZM1.51113 27.7938H3.03569C3.4486 27.7938 3.74636 27.7661 3.92502 27.7125C4.16125 27.641 4.34189 27.5239 4.461 27.3611C4.58209 27.1983 4.64165 26.9919 4.64165 26.7457C4.64165 26.5115 4.58606 26.305 4.47291 26.1283C4.35976 25.9497 4.20095 25.8286 3.99251 25.7631C3.78408 25.6976 3.42676 25.6638 2.92056 25.6638H1.51113V27.7938ZM1.51113 31.0494H3.26596C3.5677 31.0494 3.77812 31.0375 3.9012 31.0157C4.11559 30.978 4.29624 30.9125 4.43916 30.8231C4.58408 30.7338 4.7012 30.6028 4.7945 30.4321C4.8878 30.2613 4.93346 30.0628 4.93346 29.8385C4.93346 29.5765 4.86596 29.3462 4.73097 29.1536C4.59599 28.9591 4.40939 28.8241 4.17117 28.7447C3.93296 28.6653 3.58755 28.6276 3.13892 28.6276H1.50914V31.0494H1.51113Z" fill="black"/>
<path d="M10.8746 31.8812V31.1308C10.4775 31.7085 9.93759 31.9963 9.25272 31.9963C8.95099 31.9963 8.6691 31.9388 8.40905 31.8236C8.14702 31.7085 7.95446 31.5636 7.82742 31.3889C7.70037 31.2142 7.61104 30.9998 7.56141 30.7457C7.52568 30.575 7.50781 30.307 7.50781 29.9378V26.7735H8.37332V29.6062C8.37332 30.0589 8.39119 30.3626 8.42692 30.5194C8.48052 30.7477 8.59764 30.9264 8.77233 31.0554C8.949 31.1844 9.16737 31.2499 9.42742 31.2499C9.68747 31.2499 9.93163 31.1824 10.1579 31.0494C10.3862 30.9164 10.547 30.7358 10.6403 30.5055C10.7356 30.2752 10.7813 29.9437 10.7813 29.507V26.7695H11.6468V31.8772H10.8746V31.8812Z" fill="black"/>
<path d="M12.6562 30.3565L13.5118 30.2215C13.5595 30.565 13.6945 30.827 13.9128 31.0096C14.1332 31.1923 14.4389 31.2836 14.8339 31.2836C15.2309 31.2836 15.5267 31.2022 15.7193 31.0414C15.9118 30.8786 16.0071 30.69 16.0071 30.4717C16.0071 30.2771 15.9218 30.1223 15.753 30.0091C15.6339 29.9317 15.3401 29.8344 14.8677 29.7153C14.2324 29.5545 13.7917 29.4156 13.5476 29.2985C13.3014 29.1813 13.1168 29.0186 12.9897 28.8121C12.8627 28.6057 12.7992 28.3774 12.7992 28.1273C12.7992 27.899 12.8508 27.6885 12.956 27.494C13.0612 27.2995 13.2022 27.1387 13.3808 27.0096C13.5158 26.9104 13.6984 26.827 13.9307 26.7575C14.1629 26.688 14.4131 26.6543 14.6791 26.6543C15.0801 26.6543 15.4314 26.7119 15.7352 26.827C16.0389 26.9421 16.2612 27.099 16.4061 27.2955C16.551 27.492 16.6503 27.756 16.7039 28.0875L15.8582 28.2027C15.8205 27.9407 15.7093 27.7342 15.5247 27.5873C15.3401 27.4404 15.0801 27.367 14.7426 27.367C14.3456 27.367 14.0617 27.4325 13.891 27.5635C13.7203 27.6945 13.6369 27.8493 13.6369 28.026C13.6369 28.1392 13.6726 28.2384 13.7421 28.3297C13.8136 28.423 13.9227 28.5005 14.0736 28.56C14.161 28.5918 14.4151 28.6652 14.8379 28.7803C15.4513 28.9431 15.8781 29.0781 16.1203 29.1813C16.3624 29.2866 16.553 29.4374 16.69 29.6359C16.827 29.8344 16.8964 30.0806 16.8964 30.3764C16.8964 30.6642 16.8131 30.9362 16.6443 31.1923C16.4756 31.4464 16.2334 31.6449 15.9158 31.7838C15.5982 31.9228 15.2389 31.9923 14.8379 31.9923C14.1749 31.9923 13.6687 31.8553 13.3213 31.5794C12.9739 31.3074 12.7515 30.8985 12.6562 30.3565Z" fill="black"/>
<path d="M17.9336 25.8266V24.8301H18.7991V25.8266H17.9336ZM17.9336 31.8812V26.7735H18.7991V31.8812H17.9336Z" fill="black"/>
<path d="M20.1172 31.881V26.7733H20.8954V27.4999C21.2705 26.9381 21.8125 26.6582 22.5212 26.6582C22.8289 26.6582 23.1127 26.7138 23.3708 26.825C23.6289 26.9361 23.8214 27.081 23.9504 27.2597C24.0795 27.4384 24.1688 27.6527 24.2204 27.8989C24.2522 28.0597 24.2681 28.3396 24.2681 28.7406V31.881H23.4025V28.7743C23.4025 28.421 23.3688 28.1589 23.3013 27.9823C23.2338 27.8076 23.1147 27.6686 22.942 27.5634C22.7713 27.4602 22.5688 27.4066 22.3385 27.4066C21.9693 27.4066 21.6517 27.5237 21.3837 27.758C21.1157 27.9922 20.9827 28.4369 20.9827 29.09V31.879H20.1172V31.881Z" fill="black"/>
<path d="M29.0942 30.2374L29.9895 30.3485C29.8485 30.8706 29.5865 31.2776 29.2054 31.5654C28.8242 31.8532 28.3359 31.9982 27.7423 31.9982C26.9959 31.9982 26.4024 31.7679 25.9657 31.3073C25.527 30.8468 25.3086 30.2016 25.3086 29.3719C25.3086 28.5123 25.5289 27.8453 25.9716 27.3709C26.4143 26.8964 26.988 26.6582 27.6927 26.6582C28.3756 26.6582 28.9334 26.8905 29.3662 27.355C29.7989 27.8195 30.0153 28.4746 30.0153 29.3163C30.0153 29.3679 30.0133 29.4453 30.0113 29.5465H26.2019C26.2337 30.1083 26.3925 30.5371 26.6783 30.8349C26.9642 31.1326 27.3195 31.2815 27.7463 31.2815C28.0639 31.2815 28.3339 31.1982 28.5602 31.0314C28.7845 30.8686 28.9612 30.6026 29.0942 30.2374ZM26.2515 28.8379H29.1041C29.0664 28.4091 28.9572 28.0855 28.7766 27.8711C28.5007 27.5376 28.1433 27.3709 27.7046 27.3709C27.3076 27.3709 26.9721 27.5039 26.7021 27.7699C26.4302 28.0359 26.2793 28.3912 26.2515 28.8379Z" fill="black"/>
<path d="M30.7266 30.3565L31.5821 30.2215C31.6298 30.565 31.7648 30.827 31.9831 31.0096C32.2035 31.1923 32.5092 31.2836 32.9042 31.2836C33.3013 31.2836 33.597 31.2022 33.7896 31.0414C33.9821 30.8786 34.0774 30.69 34.0774 30.4717C34.0774 30.2771 33.9921 30.1223 33.8233 30.0091C33.7042 29.9317 33.4104 29.8344 32.938 29.7153C32.3027 29.5545 31.862 29.4156 31.6179 29.2985C31.3717 29.1813 31.1871 29.0186 31.0601 28.8121C30.933 28.6057 30.8695 28.3774 30.8695 28.1273C30.8695 27.899 30.9211 27.6885 31.0263 27.494C31.1315 27.2995 31.2725 27.1387 31.4511 27.0096C31.5861 26.9104 31.7687 26.827 32.001 26.7575C32.2333 26.688 32.4834 26.6543 32.7494 26.6543C33.1504 26.6543 33.5017 26.7119 33.8055 26.827C34.1092 26.9421 34.3315 27.099 34.4764 27.2955C34.6213 27.492 34.7206 27.756 34.7742 28.0875L33.9285 28.2027C33.8908 27.9407 33.7797 27.7342 33.595 27.5873C33.4104 27.4404 33.1504 27.367 32.8129 27.367C32.4159 27.367 32.132 27.4325 31.9613 27.5635C31.7906 27.6945 31.7072 27.8493 31.7072 28.026C31.7072 28.1392 31.7429 28.2384 31.8124 28.3297C31.8839 28.423 31.9931 28.5005 32.1439 28.56C32.2313 28.5918 32.4854 28.6652 32.9082 28.7803C33.5216 28.9431 33.9484 29.0781 34.1906 29.1813C34.4328 29.2866 34.6233 29.4374 34.7603 29.6359C34.8973 29.8344 34.9668 30.0806 34.9668 30.3764C34.9668 30.6642 34.8834 30.9362 34.7146 31.1923C34.5459 31.4464 34.3037 31.6449 33.9861 31.7838C33.6685 31.9228 33.3092 31.9923 32.9082 31.9923C32.2452 31.9923 31.739 31.8553 31.3916 31.5794C31.0462 31.3074 30.8238 30.8985 30.7266 30.3565Z" fill="black"/>
<path d="M35.6523 30.3565L36.5079 30.2215C36.5556 30.565 36.6906 30.827 36.9089 31.0096C37.1293 31.1923 37.435 31.2836 37.83 31.2836C38.227 31.2836 38.5228 31.2022 38.7154 31.0414C38.9079 30.8786 39.0032 30.69 39.0032 30.4717C39.0032 30.2771 38.9179 30.1223 38.7491 30.0091C38.63 29.9317 38.3362 29.8344 37.8638 29.7153C37.2285 29.5545 36.7878 29.4156 36.5437 29.2985C36.2975 29.1813 36.1129 29.0186 35.9858 28.8121C35.8588 28.6057 35.7953 28.3774 35.7953 28.1273C35.7953 27.899 35.8469 27.6885 35.9521 27.494C36.0573 27.2995 36.1982 27.1387 36.3769 27.0096C36.5119 26.9104 36.6945 26.827 36.9268 26.7575C37.159 26.688 37.4092 26.6543 37.6752 26.6543C38.0762 26.6543 38.4275 26.7119 38.7313 26.827C39.035 26.9421 39.2573 27.099 39.4022 27.2955C39.5471 27.492 39.6464 27.756 39.7 28.0875L38.8543 28.2027C38.8166 27.9407 38.7054 27.7342 38.5208 27.5873C38.3362 27.4404 38.0762 27.367 37.7387 27.367C37.3417 27.367 37.0578 27.4325 36.8871 27.5635C36.7164 27.6945 36.633 27.8493 36.633 28.026C36.633 28.1392 36.6687 28.2384 36.7382 28.3297C36.8097 28.423 36.9188 28.5005 37.0697 28.56C37.1571 28.5918 37.4111 28.6652 37.834 28.7803C38.4474 28.9431 38.8742 29.0781 39.1164 29.1813C39.3585 29.2866 39.5491 29.4374 39.6861 29.6359C39.8231 29.8344 39.8925 30.0806 39.8925 30.3764C39.8925 30.6642 39.8092 30.9362 39.6404 31.1923C39.4717 31.4464 39.2295 31.6449 38.9119 31.7838C38.5943 31.9228 38.235 31.9923 37.834 31.9923C37.171 31.9923 36.6648 31.8553 36.3174 31.5794C35.9719 31.3074 35.7496 30.8985 35.6523 30.3565Z" fill="black"/>
<path d="M44.3281 31.8812V24.8301H46.9882C47.4567 24.8301 47.814 24.8519 48.0601 24.8976C48.4075 24.9551 48.6974 25.0643 48.9316 25.2271C49.1658 25.3899 49.3544 25.6162 49.4974 25.908C49.6403 26.1998 49.7117 26.5214 49.7117 26.8708C49.7117 27.4703 49.5212 27.9785 49.14 28.3934C48.7589 28.8082 48.0681 29.0167 47.0715 29.0167H45.2631V31.8832H44.3281V31.8812ZM45.2611 28.1829H47.0835C47.6869 28.1829 48.1137 28.0718 48.3678 27.8455C48.6219 27.6211 48.747 27.3055 48.747 26.8986C48.747 26.6028 48.6715 26.3507 48.5227 26.1403C48.3738 25.9298 48.1773 25.7909 47.9331 25.7234C47.7763 25.6817 47.4864 25.6599 47.0616 25.6599H45.2572V28.1829H45.2611Z" fill="black"/>
<path d="M54.2323 31.2498C53.9127 31.5217 53.603 31.7143 53.3072 31.8274C53.0114 31.9386 52.6918 31.9962 52.3524 31.9962C51.7906 31.9962 51.3598 31.8592 51.0581 31.5852C50.7563 31.3113 50.6055 30.9599 50.6055 30.5351C50.6055 30.285 50.663 30.0567 50.7762 29.8503C50.8893 29.6438 51.0382 29.4771 51.2228 29.352C51.4075 29.2269 51.6139 29.1317 51.8462 29.0681C52.0169 29.0225 52.273 28.9788 52.6164 28.9371C53.3151 28.8537 53.8293 28.7545 54.1608 28.6393C54.1648 28.5202 54.1648 28.4448 54.1648 28.413C54.1648 28.0597 54.0834 27.8116 53.9186 27.6666C53.6983 27.4721 53.3687 27.3728 52.932 27.3728C52.5251 27.3728 52.2233 27.4443 52.0308 27.5872C51.8362 27.7302 51.6933 27.9823 51.6 28.3455L50.7544 28.2304C50.8318 27.8691 50.9588 27.5753 51.1335 27.353C51.3102 27.1307 51.5643 26.958 51.8978 26.8388C52.2313 26.7178 52.6184 26.6582 53.0571 26.6582C53.4938 26.6582 53.8472 26.7098 54.1191 26.813C54.3911 26.9163 54.5916 27.0453 54.7206 27.2001C54.8496 27.355 54.939 27.5515 54.9906 27.7897C55.0184 27.9366 55.0342 28.2026 55.0342 28.5877V29.7411C55.0342 30.545 55.0521 31.0552 55.0898 31.2676C55.1275 31.48 55.199 31.6845 55.3082 31.881H54.405C54.3156 31.7004 54.2581 31.49 54.2323 31.2498ZM54.1608 29.3163C53.8472 29.4453 53.3747 29.5545 52.7474 29.6438C52.3921 29.6954 52.14 29.753 51.9931 29.8165C51.8462 29.88 51.731 29.9753 51.6516 30.0984C51.5722 30.2215 51.5305 30.3584 51.5305 30.5093C51.5305 30.7396 51.6179 30.9321 51.7926 31.087C51.9673 31.2398 52.2233 31.3173 52.5608 31.3173C52.8943 31.3173 53.1901 31.2438 53.4501 31.0989C53.7102 30.954 53.9007 30.7535 54.0218 30.4994C54.1151 30.3049 54.1608 30.015 54.1608 29.6339V29.3163Z" fill="black"/>
<path d="M56.2969 31.881V26.7733H57.077V27.5475C57.2755 27.1862 57.4602 26.946 57.6269 26.8309C57.7956 26.7158 57.9802 26.6582 58.1827 26.6582C58.4745 26.6582 58.7703 26.7515 59.0721 26.9381L58.7743 27.7421C58.5619 27.617 58.3515 27.5535 58.1391 27.5535C57.9505 27.5535 57.7798 27.6111 57.6289 27.7242C57.478 27.8374 57.3708 27.9962 57.3073 28.1987C57.212 28.5063 57.1624 28.8438 57.1624 29.2091V31.883H56.2969V31.881Z" fill="black"/>
<path d="M62.0616 31.1083L62.1866 31.8726C61.9425 31.9242 61.7241 31.95 61.5315 31.95C61.2179 31.95 60.9737 31.9004 60.801 31.8011C60.6283 31.7019 60.5052 31.5708 60.4358 31.4101C60.3643 31.2473 60.3306 30.9078 60.3306 30.3877V27.4498H59.6953V26.7768H60.3306V25.5123L61.1921 24.9922V26.7768H62.0635V27.4498H61.1921V30.4373C61.1921 30.6835 61.208 30.8423 61.2377 30.9138C61.2675 30.9852 61.3171 31.0408 61.3866 31.0825C61.4561 31.1242 61.5534 31.146 61.6824 31.146C61.7777 31.1421 61.9047 31.1321 62.0616 31.1083Z" fill="black"/>
<path d="M62.9102 31.883V26.7753H63.6883V27.5018C64.0635 26.9401 64.6054 26.6602 65.3141 26.6602C65.6218 26.6602 65.9057 26.7157 66.1637 26.8269C66.4218 26.9381 66.6144 27.083 66.7434 27.2617C66.8724 27.4403 66.9618 27.6547 67.0134 27.9009C67.0451 28.0616 67.061 28.3415 67.061 28.7425V31.883H66.1955V28.7763C66.1955 28.4229 66.1618 28.1609 66.0943 27.9842C66.0268 27.8095 65.9077 27.6706 65.735 27.5654C65.5642 27.4621 65.3618 27.4085 65.1315 27.4085C64.7623 27.4085 64.4446 27.5257 64.1767 27.7599C63.9087 27.9942 63.7757 28.4388 63.7757 29.0919V31.881H62.9102V31.883Z" fill="black"/>
<path d="M71.8833 30.2393L72.7785 30.3505C72.6376 30.8726 72.3756 31.2795 71.9944 31.5673C71.6133 31.8552 71.125 32.0001 70.5314 32.0001C69.785 32.0001 69.1915 31.7698 68.7547 31.3093C68.318 30.8487 68.0977 30.2036 68.0977 29.3738C68.0977 28.5143 68.318 27.8473 68.7607 27.3728C69.2034 26.8984 69.7771 26.6602 70.4818 26.6602C71.1647 26.6602 71.7225 26.8924 72.1552 27.3569C72.588 27.8214 72.8044 28.4765 72.8044 29.3182C72.8044 29.3698 72.8024 29.4473 72.8004 29.5485H68.991C69.0227 30.1103 69.1815 30.5391 69.4674 30.8368C69.7532 31.1346 70.1086 31.2835 70.5354 31.2835C70.853 31.2835 71.123 31.2001 71.3493 31.0334C71.5736 30.8706 71.7522 30.6046 71.8833 30.2393ZM69.0406 28.8398H71.8932C71.8555 28.411 71.7463 28.0875 71.5656 27.8731C71.2897 27.5396 70.9324 27.3728 70.4937 27.3728C70.0967 27.3728 69.7612 27.5058 69.4912 27.7718C69.2192 28.0378 69.0684 28.3932 69.0406 28.8398Z" fill="black"/>
<path d="M73.8555 31.883V26.7753H74.6336V27.5495C74.8322 27.1882 75.0168 26.948 75.1835 26.8329C75.3522 26.7177 75.5369 26.6602 75.7393 26.6602C76.0312 26.6602 76.3269 26.7535 76.6287 26.9401L76.3309 27.744C76.1185 27.619 75.9081 27.5554 75.6957 27.5554C75.5071 27.5554 75.3364 27.613 75.1855 27.7262C75.0346 27.8393 74.9274 27.9981 74.8639 28.2006C74.7686 28.5083 74.719 28.8458 74.719 29.211V31.885H73.8555V31.883Z" fill="black"/>
<path d="M2.53544 10.2822C2.53544 11.1785 2.73217 11.8666 2.98931 12.2829C3.32644 12.8282 3.82929 13.0593 4.34193 13.0593C5.00314 13.0593 5.60802 12.8952 6.7737 11.283C7.70756 9.99076 8.80794 8.17693 9.54833 7.03982L10.8022 5.11334C11.6732 3.77541 12.6813 2.2881 13.8372 1.27997C14.7808 0.457131 15.7988 0 16.8232 0C18.5432 0 20.1815 0.996709 21.4354 2.86605C22.8076 4.91334 23.4737 7.49205 23.4737 10.1532C23.4737 11.7352 23.1619 12.8976 22.6313 13.816C22.1186 14.7041 21.1195 15.5914 19.4387 15.5914V13.0593C20.8778 13.0593 21.237 11.7368 21.237 10.2234C21.237 8.06673 20.7342 5.67332 19.6264 3.96316C18.8403 2.75013 17.8216 2.00893 16.7008 2.00893C15.4886 2.00893 14.5131 2.92319 13.4168 4.55335C12.834 5.41945 12.2356 6.47494 11.5638 7.66593L10.8242 8.9761C9.33854 11.6103 8.96222 12.2103 8.21938 13.2005C6.91737 14.9343 5.80556 15.5914 4.34193 15.5914C2.60565 15.5914 1.50772 14.8396 0.827734 13.7066C0.272646 12.7833 0 11.5719 0 10.1916L2.53544 10.2822Z" fill="black"/>
<path d="M2 3.04482C3.16242 1.25303 4.83993 0 6.76396 0C7.87822 0 8.98594 0.329787 10.1426 1.27425C11.4079 2.30688 12.7565 4.00724 14.4389 6.80962L15.0421 7.81531C16.4984 10.2414 17.327 11.4895 17.8118 12.0781C18.4355 12.834 18.8722 13.0593 19.4395 13.0593C20.8787 13.0593 21.2379 11.7368 21.2379 10.2234L23.4745 10.1532C23.4745 11.7352 23.1627 12.8976 22.6321 13.816C22.1195 14.7041 21.1203 15.5914 19.4395 15.5914C18.3947 15.5914 17.469 15.3645 16.4453 14.3988C15.6584 13.6576 14.7384 12.3409 14.0307 11.1573L11.9255 7.64062C10.8692 5.87577 9.9002 4.55988 9.3394 3.96398C8.73615 3.32318 7.96066 2.54932 6.72314 2.54932C5.72154 2.54932 4.87095 3.25216 4.15913 4.32724L2 3.04482Z" fill="black"/>
<path d="M6.72228 2.54932C5.72067 2.54932 4.87008 3.25216 4.15826 4.32724C3.15176 5.84638 2.53544 8.10918 2.53544 10.2822C2.53544 11.1785 2.73217 11.8666 2.98931 12.283L0.827734 13.7066C0.272646 12.7833 0 11.5719 0 10.1916C0 7.68144 0.688962 5.06518 1.99913 3.04482C3.16155 1.25303 4.83906 0 6.76309 0L6.72228 2.54932Z" fill="black"/>
<path d="M28.4023 0.492188H31.3353L36.3221 9.514L41.3098 0.492188H44.1791V15.3163H41.7865V3.95496L37.4127 11.8225H35.1679L30.7949 3.95496V15.3163H28.4023V0.492188ZM51.676 6.01939C49.9602 6.01939 48.9267 7.31079 48.6794 8.90993H54.5029C54.3829 7.26263 53.4327 6.01939 51.676 6.01939ZM46.3072 9.82093C46.3072 6.45612 48.4818 4.0072 51.7177 4.0072C54.9004 4.0072 56.8008 6.4251 56.8008 10.0005V10.6576H48.6794C48.9675 12.3972 50.1218 13.5694 51.983 13.5694C53.4678 13.5694 54.396 13.1164 55.2759 12.2878L56.5469 13.8445C55.3494 14.9457 53.8262 15.5808 51.8981 15.5808C48.3953 15.5808 46.3072 13.0266 46.3072 9.82093ZM59.7019 6.23163H57.4996V4.2725H59.7019V1.03258H62.0105V4.2725H65.3565V6.23163H62.0105V11.1972C62.0105 12.8927 62.5525 13.4951 63.8847 13.4951C64.4928 13.4951 64.8414 13.4429 65.3565 13.3572V15.2951C64.7149 15.4763 64.1026 15.5596 63.4398 15.5596C60.9476 15.5596 59.7019 14.198 59.7019 11.4723V6.23163ZM75.0771 8.13689C74.6134 6.96631 73.5791 6.10429 72.0592 6.10429C70.0837 6.10429 68.8193 7.50588 68.8193 9.78909C68.8193 12.0152 69.9833 13.4845 71.9645 13.4845C73.522 13.4845 74.6338 12.5784 75.0771 11.4511V8.13689ZM77.3856 15.3163H75.1195V13.7702C74.4861 14.6804 73.3334 15.5808 71.4665 15.5808C68.4642 15.5808 66.4577 13.0674 66.4577 9.78909C66.4577 6.47979 68.5123 4.0072 71.5939 4.0072C73.1171 4.0072 74.3122 4.61616 75.1195 5.69124V4.2725H77.3856V15.3163Z" fill="black"/>
</svg>
