<svg width="82" height="32" viewBox="0 0 82 32" fill="none" xmlns="http://www.w3.org/2000/svg">
<path d="M0.109375 0.046875H12.98L11.7981 3.76613H8.46081V17.3342H4.2851V3.76613H0.117359L0.109375 0.046875Z" fill="black"/>
<path d="M34.0586 0.046875H47.2246L46.043 3.76613H42.418V17.3342H38.2503V3.76613H34.0667L34.0586 0.046875Z" fill="black"/>
<path d="M13.7617 5.54688H17.8896V17.3351H13.7937L13.7617 5.54688Z" fill="black"/>
<path d="M19.5234 0H23.6434V8.05318L27.7313 4.06246H32.6497L27.4839 9.0747L33.2724 17.3352H28.7294L24.8649 11.5968L23.6434 12.778V17.3352H19.5234V0Z" fill="black"/>
<path d="M61.7422 0H65.9099V8.05318L69.9898 4.06246H74.9082L69.7424 9.0747L75.491 17.3352H70.9479L67.0915 11.5968L65.9099 12.778V17.3352H61.782L61.7422 0Z" fill="black"/>
<path d="M15.8337 4.19706C16.9801 4.19706 17.9095 3.26806 17.9095 2.12207C17.9095 0.975869 16.9801 0.046875 15.8337 0.046875C14.6872 0.046875 13.7578 0.975869 13.7578 2.12207C13.7578 3.26806 14.6872 4.19706 15.8337 4.19706Z" fill="black"/>
<path d="M53.148 13.7102C51.2519 13.7102 49.7148 12.1736 49.7148 10.2782C49.7148 8.38277 51.2519 6.84633 53.148 6.84633C55.044 6.84633 56.5811 8.38277 56.5811 10.2782C56.5767 12.1718 55.0423 13.7058 53.148 13.7102ZM53.148 3.22266C49.25 3.22266 46.0898 6.3815 46.0898 10.2782C46.0898 14.1748 49.25 17.3337 53.148 17.3337C57.0459 17.3337 60.2061 14.1748 60.2061 10.2782C60.2061 8.40705 59.4624 6.61227 58.1388 5.28933C56.8152 3.96616 55.02 3.22266 53.148 3.22266Z" fill="black"/>
<path d="M79.0209 9.95386C80.0205 9.95386 80.8308 9.14353 80.8308 8.14392C80.8308 7.14432 80.0205 6.33398 79.0209 6.33398C78.0213 6.33398 77.2109 7.14432 77.2109 8.14392C77.2109 9.14353 78.0213 9.95386 79.0209 9.95386Z" fill="black"/>
<path d="M79.0209 15.2019C80.0205 15.2019 80.8308 14.3916 80.8308 13.392C80.8308 12.3924 80.0205 11.582 79.0209 11.582C78.0213 11.582 77.2109 12.3924 77.2109 13.392C77.2109 14.3916 78.0213 15.2019 79.0209 15.2019Z" fill="black"/>
<path d="M6.94766 29.709H6.15405V25.1375C6.15405 24.7764 6.17623 24.3343 6.22059 23.8117H6.20158C6.12554 24.119 6.05743 24.3391 5.99723 24.4721L3.66866 29.709H3.279L0.955177 24.5102C0.888658 24.3581 0.820543 24.1252 0.750852 23.8117H0.731843C0.757174 24.084 0.76986 24.5292 0.76986 25.1469V29.709H0V22.8945H1.05499L3.14594 27.6467C3.3075 28.0109 3.41206 28.2834 3.45957 28.4639H3.48809C3.62432 28.0901 3.73363 27.8114 3.81598 27.6277L5.94972 22.8945H6.94766V29.709Z" fill="black"/>
<path d="M12.2196 29.7088H11.4402V28.9485H11.4212C11.0821 29.5314 10.5832 29.823 9.92413 29.823C9.4394 29.823 9.05922 29.6946 8.78361 29.438C8.51127 29.1814 8.375 28.8409 8.375 28.4163C8.375 27.507 8.91048 26.9781 9.98122 26.8291L11.4402 26.6248C11.4402 25.7979 11.106 25.3843 10.4375 25.3843C9.85129 25.3843 9.32237 25.584 8.85032 25.9832V25.1848C9.32871 24.8808 9.87994 24.7285 10.504 24.7285C11.6476 24.7285 12.2196 25.3338 12.2196 26.5438V29.7088ZM11.4402 27.2473L10.2665 27.4088C9.90531 27.4595 9.63276 27.5498 9.44902 27.6798C9.26528 27.8064 9.17341 28.033 9.17341 28.3592C9.17341 28.597 9.2574 28.7916 9.42518 28.9439C9.59623 29.0926 9.82285 29.1672 10.1048 29.1672C10.4913 29.1672 10.8098 29.0325 11.06 28.7632C11.3134 28.4906 11.4402 28.147 11.4402 27.732V27.2473Z" fill="black"/>
<path d="M16.3269 25.6323C16.1906 25.5278 15.9942 25.4755 15.7376 25.4755C15.4049 25.4755 15.126 25.6323 14.9011 25.946C14.6793 26.2595 14.5684 26.6873 14.5684 27.2289V29.7097H13.7891V24.8433H14.5684V25.8461H14.5875C14.6984 25.5039 14.8679 25.238 15.096 25.0479C15.3242 24.8545 15.5792 24.7578 15.8612 24.7578C16.0638 24.7578 16.2191 24.7801 16.3269 24.8243V25.6323Z" fill="black"/>
<path d="M21.3049 29.7082H20.2119L18.0638 27.37H18.0448V29.7082H17.2656V22.5039H18.0448V27.0708H18.0638L20.1073 24.842H21.129L18.8718 27.1896L21.3049 29.7082Z" fill="black"/>
<path d="M26.111 27.4707H22.675C22.6877 28.0123 22.8334 28.4305 23.1123 28.7251C23.3912 29.0198 23.7744 29.1672 24.2622 29.1672C24.8103 29.1672 25.3141 28.9865 25.7735 28.6254V29.3573C25.3458 29.6677 24.7802 29.823 24.0769 29.823C23.3894 29.823 22.8493 29.6027 22.4565 29.1624C22.0636 28.7188 21.8672 28.0963 21.8672 27.2948C21.8672 26.5375 22.0811 25.9213 22.5088 25.4462C22.9397 24.9678 23.4734 24.7285 24.1102 24.7285C24.7469 24.7285 25.2397 24.9346 25.5882 25.3465C25.9367 25.7583 26.111 26.3301 26.111 27.0618V27.4707ZM25.3126 26.8101C25.3093 26.3601 25.2001 26.0101 24.9847 25.7599C24.7723 25.5096 24.4761 25.3843 24.0959 25.3843C23.7285 25.3843 23.4163 25.516 23.1597 25.7789C22.9031 26.0418 22.7448 26.3855 22.6846 26.8101H25.3126Z" fill="black"/>
<path d="M29.6464 29.661C29.4626 29.7622 29.2202 29.813 28.9193 29.813C28.067 29.813 27.6409 29.3377 27.6409 28.3872V25.5075H26.8047V24.8423H27.6409V23.6541L28.4203 23.4023V24.8423H29.6464V25.5075H28.4203V28.2494C28.4203 28.5758 28.4759 28.8088 28.5866 28.9481C28.6975 29.0874 28.8812 29.1572 29.138 29.1572C29.3344 29.1572 29.5037 29.1034 29.6464 28.9956V29.661Z" fill="black"/>
<path d="M31.1834 23.6078C31.0441 23.6078 30.9253 23.5604 30.8271 23.4652C30.7289 23.3703 30.6797 23.2497 30.6797 23.1041C30.6797 22.9584 30.7289 22.8381 30.8271 22.7429C30.9253 22.6447 31.0441 22.5957 31.1834 22.5957C31.3261 22.5957 31.4464 22.6447 31.5446 22.7429C31.6461 22.8381 31.6968 22.9584 31.6968 23.1041C31.6968 23.2434 31.6461 23.3624 31.5446 23.4606C31.4464 23.5586 31.3261 23.6078 31.1834 23.6078ZM31.5636 29.7096H30.7842V24.8435H31.5636V29.7096Z" fill="black"/>
<path d="M37.2815 29.7088H36.5021V26.9336C36.5021 25.9007 36.125 25.3843 35.371 25.3843C34.9814 25.3843 34.6583 25.5317 34.4017 25.8264C34.1482 26.1177 34.0216 26.487 34.0216 26.9336V29.7088H33.2422V24.8427H34.0216V25.6505H34.0404C34.4079 25.0358 34.9403 24.7285 35.6372 24.7285C36.1694 24.7285 36.5765 24.9013 36.8584 25.2465C37.1404 25.5888 37.2815 26.0845 37.2815 26.7339V29.7088Z" fill="black"/>
<path d="M43.0055 29.3192C43.0055 31.1059 42.1502 31.9995 40.4394 31.9995C39.8374 31.9995 39.3114 31.8853 38.8616 31.6574V30.878C39.4096 31.182 39.9324 31.3341 40.4298 31.3341C41.6274 31.3341 42.2261 30.6973 42.2261 29.4238V28.8916H42.2071C41.8365 29.5124 41.279 29.823 40.5344 29.823C39.9293 29.823 39.4413 29.6075 39.0708 29.1766C38.7033 28.7426 38.5195 28.1612 38.5195 27.4326C38.5195 26.6058 38.7175 25.9484 39.1134 25.4604C39.5126 24.9726 40.0575 24.7285 40.7483 24.7285C41.4041 24.7285 41.8903 24.9917 42.2071 25.5175H42.2261V24.8427H43.0055V29.3192ZM42.2261 27.5087V26.791C42.2261 26.4045 42.0946 26.0736 41.8317 25.7979C41.5718 25.5223 41.2472 25.3843 40.8574 25.3843C40.376 25.3843 39.9989 25.5602 39.7265 25.9119C39.454 26.2604 39.3177 26.7499 39.3177 27.3803C39.3177 27.9221 39.4477 28.3561 39.7075 28.6825C39.9704 29.0056 40.3174 29.1672 40.7483 29.1672C41.1853 29.1672 41.5403 29.0119 41.8127 28.7015C42.0883 28.3909 42.2261 27.9934 42.2261 27.5087Z" fill="black"/>
<path d="M48.3531 27.1333V29.709H47.5547V22.8945H49.4271C50.1557 22.8945 50.7197 23.0719 51.1189 23.4267C51.5211 23.7815 51.7224 24.282 51.7224 24.9284C51.7224 25.5748 51.499 26.1037 51.0524 26.5156C50.6088 26.9275 50.0083 27.1333 49.2512 27.1333H48.3531ZM48.3531 23.6168V26.411H49.1893C49.7406 26.411 50.1605 26.2859 50.4486 26.0357C50.7402 25.7821 50.8859 25.4258 50.8859 24.9665C50.8859 24.0668 50.3537 23.6168 49.2893 23.6168H48.3531Z" fill="black"/>
<path d="M56.1491 29.7088H55.3697V28.9485H55.3509C55.0118 29.5314 54.5129 29.823 53.8538 29.823C53.3691 29.823 52.9889 29.6946 52.7133 29.438C52.441 29.1814 52.3047 28.8409 52.3047 28.4163C52.3047 27.507 52.8399 26.9781 53.9109 26.8291L55.3697 26.6248C55.3697 25.7979 55.0355 25.3843 54.367 25.3843C53.781 25.3843 53.2518 25.584 52.7798 25.9832V25.1848C53.2582 24.8808 53.8094 24.7285 54.4337 24.7285C55.5773 24.7285 56.1491 25.3338 56.1491 26.5438V29.7088ZM55.3697 27.2473L54.1959 27.4088C53.8348 27.4595 53.5625 27.5498 53.3787 27.6798C53.195 27.8064 53.1031 28.033 53.1031 28.3592C53.1031 28.597 53.1869 28.7916 53.3549 28.9439C53.5259 29.0926 53.7525 29.1672 54.0345 29.1672C54.421 29.1672 54.7393 29.0325 54.9895 28.7632C55.243 28.4906 55.3697 28.147 55.3697 27.732V27.2473Z" fill="black"/>
<path d="M60.2564 25.6323C60.1201 25.5278 59.9237 25.4755 59.6671 25.4755C59.3344 25.4755 59.0557 25.6323 58.8306 25.946C58.609 26.2595 58.4981 26.6873 58.4981 27.2289V29.7097H57.7188V24.8433H58.4981V25.8461H58.5169C58.6278 25.5039 58.7974 25.238 59.0255 25.0479C59.2537 24.8545 59.5087 24.7578 59.7907 24.7578C59.9934 24.7578 60.1485 24.7801 60.2564 24.8243V25.6323Z" fill="black"/>
<path d="M63.4591 29.661C63.2753 29.7622 63.033 29.813 62.732 29.813C61.8798 29.813 61.4537 29.3377 61.4537 28.3872V25.5075H60.6172V24.8423H61.4537V23.6541L62.233 23.4023V24.8423H63.4591V25.5075H62.233V28.2494C62.233 28.5758 62.2884 28.8088 62.3993 28.9481C62.5102 29.0874 62.6939 29.1572 62.9505 29.1572C63.1469 29.1572 63.3165 29.1034 63.4591 28.9956V29.661Z" fill="black"/>
<path d="M68.6369 29.7088H67.8576V26.9336C67.8576 25.9007 67.4807 25.3843 66.7267 25.3843C66.3369 25.3843 66.0138 25.5317 65.7572 25.8264C65.5037 26.1177 65.377 26.487 65.377 26.9336V29.7088H64.5977V24.8427H65.377V25.6505H65.3961C65.7635 25.0358 66.2957 24.7285 66.9927 24.7285C67.5249 24.7285 67.9319 24.9013 68.2139 25.2465C68.4958 25.5888 68.6369 26.0845 68.6369 26.7339V29.7088Z" fill="black"/>
<path d="M74.1147 27.4707H70.6789C70.6916 28.0123 70.8373 28.4305 71.1162 28.7251C71.3948 29.0198 71.7783 29.1672 72.2661 29.1672C72.8143 29.1672 73.318 28.9865 73.7774 28.6254V29.3573C73.3495 29.6677 72.7841 29.823 72.0808 29.823C71.3933 29.823 70.8532 29.6027 70.4604 29.1624C70.0675 28.7188 69.8711 28.0963 69.8711 27.2948C69.8711 26.5375 70.0848 25.9213 70.5127 25.4462C70.9434 24.9678 71.4773 24.7285 72.1141 24.7285C72.7508 24.7285 73.2434 24.9346 73.5919 25.3465C73.9406 25.7583 74.1147 26.3301 74.1147 27.0618V27.4707ZM73.3163 26.8101C73.3132 26.3601 73.2038 26.0101 72.9884 25.7599C72.7762 25.5096 72.48 25.3843 72.0998 25.3843C71.7324 25.3843 71.4202 25.516 71.1636 25.7789C70.9071 26.0418 70.7487 26.3855 70.6883 26.8101H73.3163Z" fill="black"/>
<path d="M77.9361 25.6323C77.7998 25.5278 77.6033 25.4755 77.3468 25.4755C77.0141 25.4755 76.7354 25.6323 76.5103 25.946C76.2885 26.2595 76.1778 26.6873 76.1778 27.2289V29.7097H75.3984V24.8433H76.1778V25.8461H76.1966C76.3075 25.5039 76.4771 25.238 76.7052 25.0479C76.9333 24.8545 77.1884 24.7578 77.4704 24.7578C77.6731 24.7578 77.8282 24.7801 77.9361 24.8243V25.6323Z" fill="black"/>
<path d="M78.582 29.5329V28.6967C79.0064 29.0104 79.4738 29.1672 79.9837 29.1672C80.6682 29.1672 81.0103 28.9391 81.0103 28.4828C81.0103 28.3528 80.9801 28.2437 80.9199 28.1549C80.8631 28.063 80.7837 27.9823 80.6824 27.9125C80.5842 27.843 80.4669 27.781 80.3307 27.7272C80.1977 27.6701 80.0535 27.6115 79.8982 27.5514C79.683 27.4658 79.4929 27.3803 79.3279 27.2948C79.1665 27.206 79.0302 27.1078 78.9193 27.0001C78.8117 26.8892 78.7292 26.7641 78.6722 26.6248C78.6183 26.4852 78.5914 26.3223 78.5914 26.1352C78.5914 25.9071 78.6437 25.7061 78.7483 25.5317C78.8528 25.3543 78.9922 25.2069 79.1665 25.0899C79.3406 24.9694 79.5388 24.879 79.7604 24.8189C79.9855 24.7587 80.2167 24.7285 80.4542 24.7285C80.8758 24.7285 81.2526 24.8016 81.5854 24.9473V25.736C81.2273 25.5015 80.8154 25.3843 80.3497 25.3843C80.204 25.3843 80.0725 25.4018 79.9553 25.4366C79.838 25.4683 79.7368 25.5142 79.6512 25.5744C79.5688 25.6348 79.5038 25.7076 79.4563 25.7931C79.4119 25.8754 79.3898 25.9672 79.3898 26.0687C79.3898 26.1954 79.4119 26.3015 79.4563 26.387C79.5038 26.4728 79.5721 26.5487 79.6606 26.6152C79.7495 26.6817 79.8571 26.742 79.9837 26.7958C80.1106 26.8496 80.2547 26.9083 80.4162 26.9717C80.6316 27.054 80.825 27.1395 80.9961 27.2283C81.1671 27.3138 81.3128 27.412 81.4333 27.5229C81.5536 27.6306 81.6455 27.7557 81.7089 27.8983C81.7754 28.0409 81.8087 28.2104 81.8087 28.4069C81.8087 28.6475 81.7549 28.8566 81.647 29.034C81.5425 29.2114 81.4016 29.3588 81.2242 29.4761C81.0468 29.5933 80.8423 29.6804 80.6111 29.7375C80.3799 29.7943 80.1375 29.823 79.884 29.823C79.3835 29.823 78.9495 29.7263 78.582 29.5329Z" fill="black"/>
</svg>
